<?xml version="1.0" encoding="UTF-8" standalone="no"?>
<svg
   xmlns:dc="http://purl.org/dc/elements/1.1/"
   xmlns:cc="http://creativecommons.org/ns#"
   xmlns:rdf="http://www.w3.org/1999/02/22-rdf-syntax-ns#"
   xmlns:svg="http://www.w3.org/2000/svg"
   xmlns="http://www.w3.org/2000/svg"
   version="1.1"
   id="svg833"
   width="2500"
   height="750"
   viewBox="0 0 2500 749.99999">
  <metadata
     id="metadata839">
    <rdf:RDF>
      <cc:Work
         rdf:about="">
        <dc:format>image/svg+xml</dc:format>
        <dc:type
           rdf:resource="http://purl.org/dc/dcmitype/StillImage" />
        <dc:title></dc:title>
      </cc:Work>
    </rdf:RDF>
  </metadata>
  <defs
     id="defs837" />
  <g
     id="g841"
     transform="translate(-96.876892,-289.3219)">
    <path
       id="path845"
       style="fill:#00ff99;fill-opacity:1;stroke-width:1.86723"
       d="M 309.10742 0 C 307.92693 0.37805601 306.75879 0.85880793 305.61328 1.4511719 C 290.20073 9.4213119 292.00978 34.840101 308.47461 41.650391 C 326.44029 49.081501 344.04094 32.188694 337.16211 14.115234 C 334.45631 7.0059764 328.90512 2.0445542 322.46875 0 L 309.10742 0 z M 478.83203 0 C 481.49113 5.1680208 484.51912 10.094968 488.0625 15.064453 C 500.78203 32.903243 544.6222 76.139426 577.35742 103.12891 C 592.76212 115.82971 623.45387 143.99104 645.5625 165.71094 C 702.41411 221.56304 715.19635 229.98583 757.67578 239.58203 C 770.58462 242.49813 785.63453 246.65185 791.12109 248.81445 C 796.60767 250.97705 804.11221 253.42922 807.79688 254.26172 C 824.90469 258.12722 838.20898 249.74125 838.20898 235.09375 C 838.20898 219.81935 828.73558 213.7461 800.95703 211.2168 C 774.19603 208.7801 754.52238 203.6423 734.20508 193.7832 C 715.27285 184.5962 703.66317 175.47503 669.0293 142.57812 C 655.77617 129.98972 623.8463 102.39619 598.07422 81.259766 C 542.34419 35.554016 527.53759 22.343152 513.67578 0 L 478.83203 0 z M 584.50977 0 C 593.30323 5.1780899 601.001 11.404398 611.90039 21.947266 C 621.6567 31.384406 635.52209 43.736954 642.71094 49.396484 C 649.89981 55.056024 664.11612 67.162941 674.30273 76.300781 C 748.01625 142.4249 756.84825 147.80214 808.68945 158.11914 C 838.78231 164.10784 848.84135 168.49098 859.37695 180.20898 C 872.80045 195.13918 876.03313 208.42172 876.07812 248.82812 C 876.11933 285.43142 875.12132 289.41223 863.97852 297.04883 C 857.58782 301.42863 856.8015 301.50495 828.5 300.50195 C 792.70018 299.23325 722.66936 289.51981 703.69727 283.19141 C 684.51373 276.79241 672.22967 267.7625 646.43359 241.0957 C 634.11556 228.362 614.49343 209.18096 602.82812 198.47266 C 590.21994 186.89876 578.34193 174.03053 573.53906 166.74023 C 562.76504 150.38633 557.79891 146.03326 548.49414 144.78516 C 539.40496 143.56606 532.92851 146.42008 529.94922 152.95898 C 523.92902 166.17178 529.71835 176.36593 553.29102 194.05273 C 558.54077 197.99163 568.5761 207.51645 575.58984 215.21875 C 608.89826 251.79745 658.33154 301.75867 666.22852 306.82617 C 684.06807 318.27377 693.10207 320.43985 763.41211 330.12305 C 813.3884 337.00575 824.1679 337.392 859.5293 333.5625 C 873.4034 332.06 882.00903 337.01186 893.14453 352.91016 C 898.00613 359.85106 907.26515 372.72563 913.71875 381.51953 C 920.17235 390.31363 929.20176 405.10081 933.78516 414.37891 C 938.45266 423.82731 944.70906 433.42707 948.00586 436.20117 C 959.31296 445.71537 975.64444 440.95546 979.55664 427.00586 C 981.80434 418.99146 978.00445 409.08701 968.62305 398.50391 C 964.38165 393.71911 957.79683 384.96949 953.99023 379.05859 C 935.11063 349.74249 924.77187 334.78321 917.23047 325.87891 C 905.14067 311.60441 903.87666 304.93081 908.88086 281.75391 C 914.06276 257.75371 913.11273 229.78606 906.08203 199.34766 C 900.06752 173.30876 892.68375 158.11725 880.87695 147.50195 C 869.44075 137.21985 857.69157 132.70153 824.19727 125.70312 C 786.06176 117.73503 770.59419 111.87717 751.00977 97.980469 C 745.87487 94.336869 719.88459 73.219378 693.25391 51.054688 C 668.03354 30.063762 640.17864 7.9703945 628.95312 0 L 584.50977 0 z M 714.81641 0 C 723.73063 7.3529522 732.76237 14.831963 739.26953 20.289062 C 773.54833 49.036293 793.65233 60.977769 824.76562 71.068359 C 855.95413 81.183339 869.88039 84.824506 894.46289 89.291016 C 907.6778 91.692096 920.49862 94.971878 922.95312 96.580078 C 929.35473 100.77458 934.23993 111.50513 937.49023 128.51562 C 939.04703 136.66332 942.9043 153.83272 946.0625 166.66992 C 951.7588 189.82342 955.27422 214.10927 959.16992 257.23047 C 961.79952 286.33667 966.58443 303.65167 978.01562 325.42188 C 998.95393 365.29778 1005.6749 381.01708 1012.332 405.67578 C 1016.0749 419.54008 1021.1087 437.18627 1023.5176 444.88867 C 1025.9266 452.59097 1029.3422 466.03427 1031.1074 474.76367 C 1034.7098 492.57867 1039.3081 502.98631 1045.4902 507.31641 C 1047.8384 508.96121 1053.4958 510.24219 1058.4199 510.24219 C 1065.9036 510.24219 1067.8756 509.40689 1072.0078 504.49609 C 1079.634 495.43289 1078.6494 486.42453 1067.584 464.07812 C 1062.4912 453.79322 1055.7071 436.23555 1052.5098 425.06055 C 1036.2551 368.24945 1032.7289 358.07928 1019.8008 330.73828 C 1002.616 294.39468 997.48278 276.87323 993.76758 241.86523 C 988.89338 195.93573 980.1409 147.55502 972.1582 122.41602 C 968.1158 109.68542 964.80859 96.746362 964.80859 93.664062 C 964.80859 85.646163 969.16217 78.25484 983.92188 61.21875 C 991.06268 52.9766 1001.1245 38.414092 1006.2812 28.857422 C 1012.6853 16.989419 1018.4758 7.6512855 1024.4316 0 L 983.26172 0 C 968.39728 24.366568 954.67217 44.832886 949.22461 50.59375 C 936.76011 63.77505 929.98398 64.684098 904.61328 56.580078 C 895.10147 53.541748 876.88015 48.859208 864.12305 46.173828 C 826.01708 38.152557 803.78666 28.753892 765.36133 0 L 714.81641 0 z M 1121.8047 0 C 1105.9271 5.0809148 1094.5758 10.245419 1085.2559 16.431641 C 1072.566 24.854711 1051.5781 47.141665 1043.5039 60.765625 C 1023.7425 94.110005 1022.5526 109.21683 1033.8359 183.49023 C 1046.6755 268.00853 1053.0658 292.64174 1075.5547 344.30664 C 1088.818 374.77724 1091.3534 382.96791 1093.5137 402.32031 C 1096.3016 427.29541 1102.258 435.55273 1117.4883 435.55273 C 1123.508 435.55273 1126.6938 434.41945 1130.0195 431.09375 C 1139.3674 421.74595 1137.9984 410.53859 1123.0352 373.93359 C 1087.9389 288.07589 1081.8068 264.99159 1067.5781 165.17969 C 1061.383 121.72149 1063.0398 101.32223 1074.4727 80.316406 C 1085.1698 60.662266 1110.7908 39.839701 1133.4375 32.394531 C 1139.7949 30.304491 1158.8614 25.712133 1175.8066 22.189453 C 1192.7518 18.666773 1212.9168 13.501961 1220.6191 10.712891 C 1233.9189 5.8969766 1243.4754 2.5493994 1251.7773 0 L 1121.8047 0 z M 1407.9082 0 C 1405.8504 1.2710814 1403.8174 2.5389779 1401.8574 3.7773438 C 1363.4332 28.054744 1350.5687 32.923528 1309.3145 38.798828 C 1250.1626 47.223018 1239.0894 57.125866 1218.0391 120.44141 C 1203.5826 163.92351 1202.7731 188.93489 1214.2188 238.55859 C 1223.4798 278.71189 1224.2903 283.54867 1224.3223 298.88477 C 1224.3675 320.55347 1222.1972 328.01624 1206.5234 360.11914 C 1198.9511 375.62844 1189.3776 397.05567 1185.248 407.73438 C 1175.0453 434.11748 1164.552 451.22866 1143 476.63086 C 1132.9797 488.44116 1119.4864 506.27401 1113.0137 516.25781 C 1106.5409 526.24161 1096.6518 539.40467 1091.0391 545.50977 C 1078.2773 559.39137 1074.9746 565.72138 1074.9746 576.30078 C 1074.9746 583.10798 1075.8883 585.38005 1079.8945 588.53125 C 1083.1346 591.08005 1087.5487 592.40039 1092.8223 592.40039 C 1104.7403 592.40039 1110.4136 586.57864 1119.6523 564.86914 C 1124.6337 553.16374 1130.7545 542.64852 1136.7773 535.44922 C 1176.5143 487.94962 1197.7 459.06752 1207.9961 438.35352 C 1210.5485 433.21862 1217.0312 418.09484 1222.4023 404.74414 C 1227.7733 391.39344 1237.1049 369.96611 1243.1387 357.12891 C 1262.7137 315.48141 1263.3094 307.46577 1251.1172 249.76367 C 1244.6508 219.15987 1244.016 213.56404 1244.002 187.21094 C 1243.991 161.32034 1244.5328 156.32271 1249.1309 139.82031 C 1262.9481 90.231783 1275.2072 79.865822 1328.9199 72.357422 C 1365.2944 67.272682 1374.7783 63.403642 1412.6191 38.201172 C 1441.8739 18.717107 1462.3932 8.5942549 1493.6035 0 L 1407.9082 0 z M 1637.4297 0 C 1620.9622 23.204085 1609.247 29.537409 1582.3906 32.351562 C 1528.6745 37.980282 1521.3423 39.511846 1489.502 51.759766 C 1477.6918 56.302806 1462.6177 61.395179 1456.0039 63.074219 C 1437.0473 67.886759 1429.9997 72.270847 1425.7383 81.904297 C 1422.6645 88.853187 1422.3869 91.314537 1424.0977 96.498047 C 1427.5432 106.93805 1432.8822 109.91747 1446.6328 109.07617 C 1449.2433 108.91647 1458.9076 104.45486 1468.1074 99.160156 C 1488.9198 87.181936 1501.6721 82.105869 1525.7285 76.224609 C 1546.1077 71.242329 1552.7033 70.360862 1588.8203 67.789062 C 1633.5718 64.602422 1642.6307 58.615777 1671.7871 12.966797 C 1674.3546 8.947008 1677.2079 4.5280388 1680.1504 0 L 1637.4297 0 z M 1731.541 0 C 1730.1876 4.9047344 1728.6506 9.7585924 1727.5605 12.367188 C 1723.8752 21.187997 1695.6337 70.634973 1690.0879 77.976562 C 1674.6731 98.382932 1671.9475 119.56722 1683.5332 128.91602 C 1685.4102 130.43052 1690.202 131.04892 1696.6113 130.60352 C 1710.4747 129.64012 1715.3399 123.94471 1722.7539 100.00781 C 1725.871 89.944142 1731.8934 75.829475 1736.1367 68.640625 C 1740.3798 61.451775 1747.2188 49.266803 1751.334 41.564453 C 1755.4491 33.862103 1762.8565 19.998669 1767.7949 10.755859 C 1769.902 6.8120451 1771.6513 3.254073 1773.0781 0 L 1731.541 0 z M 1819.123 0 C 1819.1299 3.6173878 1818.8087 7.2711773 1818.2227 11.328125 C 1816.3227 24.482275 1810.0707 38.936557 1795.9141 62.904297 C 1783.4055 84.081677 1769.3757 115.01014 1763.0273 135.40234 C 1755.3179 160.16664 1756.6619 177.03024 1769.4609 216.15234 C 1779.7498 247.60214 1788.3277 281.4187 1791.9609 304.8457 C 1793.1553 312.5481 1796.0985 329.35225 1798.5 342.18945 C 1801.9548 360.66505 1802.6523 369.31228 1801.8457 383.67578 C 1800.7398 403.36958 1802.5867 411.19828 1809.4727 416.02148 C 1815.73 420.40428 1826.8963 419.49226 1832.2246 414.16406 C 1838.1366 408.25186 1838.431 394.12683 1832.9707 378.42773 C 1830.6456 371.74303 1828.4504 358.57329 1827.3965 344.99219 C 1826.4402 332.66839 1825.1661 318.80304 1824.5645 314.18164 C 1822.0545 294.90684 1811.8598 246.34788 1805.9434 225.48828 C 1792.8406 179.29098 1791.4346 166.92822 1796.7324 144.45312 C 1800.097 130.17912 1815.8941 96.743549 1835.6367 62.105469 C 1853.3617 31.007679 1856.1905 22.061542 1855.0664 0.66992188 C 1855.0547 0.4469341 1855.0326 0.22300809 1855.0195 0 L 1819.123 0 z M 1906.8867 0 C 1908.1392 2.9812369 1909.3688 5.5838311 1910.7754 8.3769531 C 1925.2977 37.214383 1969.9898 98.306853 1990.5137 117.37695 C 2008.4161 134.01135 2019.966 140.78954 2049.6094 152.05664 C 2062.9196 157.11574 2077.832 163.48468 2082.748 166.20898 C 2094.0136 172.45228 2108.4246 187.15838 2116.8926 201.05078 C 2143.7511 245.11458 2155.66 259.35585 2186.6699 284.49805 C 2198.1009 293.76615 2210.5922 305.28691 2214.4277 310.09961 C 2228.8019 328.13621 2236.3965 357.94854 2236.3965 396.33984 C 2236.3965 424.61944 2232.888 444.14279 2222.5859 473.18359 C 2218.0074 486.09069 2213.3629 503.10439 2212.2656 510.99219 C 2209.8681 528.22949 2206.9375 534.3716 2197.4863 541.9668 C 2179.9355 556.0709 2177.1579 578.85787 2192.248 584.94727 C 2198.5867 587.50537 2203.285 587.04954 2209.4707 583.27734 C 2217.254 578.53124 2221.4723 568.81497 2222.7598 552.66797 C 2223.9547 537.68367 2224.9751 535.02169 2233.6602 524.24609 C 2243.1024 512.53099 2247.4057 502.34414 2252.3418 480.02734 C 2254.8609 468.63814 2259.4339 451.47893 2262.5039 441.89453 C 2273.4961 407.57893 2273.7934 396.68757 2265.0625 347.79297 C 2256.4844 299.75347 2251.595 291.41585 2216.9062 265.68555 C 2180.4183 238.62085 2173.6419 230.61907 2145.7168 181.60938 C 2134.3837 161.71928 2116.2199 143.05906 2101.4219 136.10156 C 2095.4804 133.30816 2082.0372 128.04314 2071.5469 124.40234 C 2045.6032 115.39814 2025.9121 104.84297 2013.459 93.263672 C 2001.2136 81.877662 1966.0758 33.052906 1952.4863 8.5410156 C 1950.8293 5.55214 1949.2996 2.7295738 1947.8633 0 L 1906.8867 0 z M 2004.2559 0 C 2009.9306 9.2776306 2016.3286 18.917686 2023.6836 29.427734 C 2031.5892 40.724504 2040.3644 54.589901 2043.1855 60.238281 C 2046.0067 65.886661 2051.2015 73.238472 2054.7285 76.576172 C 2063.8524 85.209932 2073.7207 85.111325 2082.5352 76.296875 C 2093.738 65.094025 2091.0791 55.564996 2070.5488 33.353516 C 2063.9794 26.246297 2055.3687 14.304363 2046.4082 0 L 2004.2559 0 z M 2103.3301 0 C 2112.7579 16.882648 2116.8315 28.664543 2125.1172 57.070312 C 2137.3177 98.898163 2143.1392 108.76947 2161.502 118.76367 C 2173.8955 125.50907 2191.0344 128.56435 2231.7285 131.28125 C 2250.2141 132.51545 2265.6872 133.84106 2266.1152 134.22656 C 2267.6425 135.60246 2286.0825 134.86518 2297.8301 132.95898 C 2316.4892 129.93148 2334.0113 122.99483 2363.3574 107.01953 C 2378.2543 98.909831 2395.5421 90.571191 2401.7734 88.488281 C 2419.193 82.665741 2442.4231 80.38194 2461.7285 82.59375 C 2479.3592 84.613701 2491.6993 84.968805 2500 83.269531 L 2500 45.511719 C 2495.3453 44.05082 2489.6711 43.587865 2483.0957 44.222656 C 2476.2964 44.879076 2455.1886 46.095394 2436.1895 46.927734 C 2396.1379 48.682374 2389.3479 50.598591 2359.9727 68.425781 C 2322.7602 91.009331 2310.8902 95.462781 2284.0098 96.925781 C 2259.6962 98.249081 2206.3023 94.840095 2194.3828 91.203125 C 2174.4295 85.114815 2166.2466 73.264866 2155.1895 34.447266 C 2151.3469 20.957205 2147.8809 10.730572 2143.0762 0 L 2103.3301 0 z M 2194.3008 0 C 2212.2831 43.084787 2217.2714 45.608494 2268.1387 47.228516 C 2287.1377 47.833616 2306.7003 48.487511 2311.6113 48.681641 C 2328.104 49.333561 2339.0938 41.431152 2339.0938 28.919922 C 2339.0938 19.036872 2334.5656 12.408262 2325.4316 8.9199219 C 2317.829 6.0164219 2316.0694 6.0193137 2298.7832 8.9648438 C 2268.8871 14.059022 2248.9632 11.18782 2237.2051 0 L 2194.3008 0 z M 2433.9512 0 C 2445.9311 0.30693999 2460.105 0.52939447 2474.4688 0.59375 C 2484.6637 0.63941917 2492.7485 0.65197793 2500 0.6328125 L 2500 0 L 2433.9512 0 z M 69.976562 6.0878906 C 48.888843 6.0878906 42.461426 38.417772 61.666016 47.888672 C 69.139296 51.574162 72.93123 51.621268 79.71875 48.111328 C 87.42976 44.123808 90.941406 38.174512 90.941406 29.101562 C 90.941406 14.240103 83.515553 6.0878906 69.976562 6.0878906 z M 159.75 19.166016 C 150.26894 19.176586 141.94743 25.160651 139.34766 33.837891 C 136.55051 43.174001 138.23085 49.928137 145.04492 56.742188 C 148.98719 60.684487 152.20859 62.105469 157.20898 62.105469 C 170.95676 62.105469 178.59756 54.555419 178.66016 40.912109 C 178.69611 33.075099 177.8475 31.001802 172.35352 25.507812 C 167.65475 20.809043 164.37967 19.160016 159.75 19.166016 z M 0 20.921875 L 0 35.382812 C 1.2407365 31.268876 1.1383186 25.657509 0 20.921875 z M 414.72461 29.214844 C 406.21141 28.966506 397.10695 32.911539 391.48438 42.132812 C 384.56622 53.478913 388.64411 68.853663 399.76172 73.345703 C 414.40954 79.264083 432.64122 69.313303 435.54883 53.814453 C 438.34671 38.900457 427.16697 29.5778 414.72461 29.214844 z M 239.0625 54.982422 C 232.86297 54.790086 226.39993 57.422965 221.58594 63.542969 C 219.06065 66.753339 217.91406 71.0899 217.91406 77.4375 C 217.91406 85.14722 218.81298 87.56494 223.37305 92.125 C 227.84961 96.60157 230.39998 97.582031 237.5625 97.582031 C 245.00441 97.582031 247.23446 96.644485 252.64453 91.234375 C 257.99311 85.885795 258.99414 83.555083 258.99414 76.439453 C 258.99414 63.473466 249.39505 55.302981 239.0625 54.982422 z M 1171.4238 58.476562 C 1167.3249 58.523079 1162.9764 59.83102 1158.8105 62.625 C 1151.67 67.41399 1132.2645 94.538487 1123.6699 111.74219 C 1116.4348 126.22439 1114.0373 142.81552 1116.2441 163.14062 C 1118.5213 184.11573 1127.7869 233.78318 1134.7129 262.14648 C 1138.3224 276.92758 1140.3582 290.16727 1140.4102 299.19727 C 1140.5325 320.32427 1142.7546 329.09027 1149.5195 335.13477 C 1157.163 341.96417 1167.7586 342.24596 1175.2344 335.81836 C 1179.9638 331.75206 1180.4698 330.16317 1180.4238 319.48047 C 1180.3955 312.93947 1178.1342 298.87792 1175.3691 288.04102 C 1166.4756 253.18632 1154.6771 184.02228 1153.8125 161.67578 C 1152.6947 132.78448 1155.3062 125.35017 1173.0469 106.91797 C 1188.2083 91.165639 1190.7441 87.183574 1190.7441 79.121094 C 1190.7441 66.481774 1181.899 58.357687 1171.4238 58.476562 z M 1896.0625 62.515625 C 1894.0803 62.48155 1891.9555 62.893959 1889.1309 63.740234 C 1878.4692 66.934554 1873.0622 74.571863 1869.4805 91.501953 C 1867.7954 99.467083 1862.969 116.06878 1858.7539 128.39258 C 1851.5393 149.48668 1851.0975 152.00169 1851.2207 171.33789 C 1851.333 189.01209 1852.4385 196.1762 1859.1445 222.6875 C 1876.5058 291.3232 1880.0597 309.90093 1881.3496 338.73633 C 1882.648 367.75873 1883.9915 371.79056 1893.7578 375.97266 C 1899.5924 378.47106 1908.2972 376.25805 1912.8145 371.12695 C 1919.4951 363.53905 1919.8947 355.63232 1914.5312 337.19922 C 1911.8936 328.13382 1908.4685 309.79406 1906.9199 296.44336 C 1905.3713 283.09256 1900.2449 256.6241 1895.5273 237.625 C 1880.351 176.5064 1881.7048 151.34498 1902.3398 111.08398 C 1917.2229 82.045414 1917.173 70.190211 1902.1387 63.962891 C 1899.8848 63.029296 1898.0447 62.5497 1896.0625 62.515625 z M 480.93164 86.662109 C 475.41209 86.833952 469.96578 89.086578 465.84961 93.693359 C 461.61086 98.437359 460.6543 101.25665 460.6543 109.00195 C 460.6543 117.30875 461.44884 119.28875 467.00391 124.84375 C 472.28175 130.12165 474.72208 131.19555 481.47461 131.18555 C 498.7418 131.17065 509.17448 117.1896 503.3457 101.875 C 499.53743 91.869062 490.1309 86.375706 480.93164 86.662109 z M 320.08398 93.648438 C 314.92045 93.634566 309.54562 95.481355 304.9375 99.527344 C 294.51499 108.67844 293.80012 123.55276 303.35742 132.41016 C 306.83204 135.63036 310.26816 136.79492 316.30859 136.79492 C 332.64108 136.79492 342.52737 126.5771 340.53906 111.75 C 339.02876 100.48737 329.94163 93.67492 320.08398 93.648438 z M 17.091797 97.542969 C 10.81885 97.528099 4.4738815 99.999607 0 104.39453 L 0 133.85742 C 1.4000218 135.40885 2.9576681 136.71138 4.6054688 137.60547 C 24.966079 148.65297 46.809639 126.84209 34.917969 107.33789 C 30.796134 100.57747 23.989352 97.55932 17.091797 97.542969 z M 116.26367 107.49805 C 113.18665 107.58812 110.03733 108.31608 106.97852 109.76758 C 98.749156 113.67268 94.675781 120.79541 94.675781 131.28711 C 94.675781 137.60941 95.845281 140.20271 101.02539 145.38281 C 106.2055 150.56291 108.80079 151.73242 115.12305 151.73242 C 130.89235 151.73242 140.84049 141.32593 138.90039 126.86133 C 137.30588 114.97344 127.25304 107.17635 116.26367 107.49805 z M 1593.6016 115.35742 C 1586.2695 115.37311 1577.9607 116.30369 1567.9258 117.96875 C 1555.0887 120.09875 1538.2825 121.86363 1530.5801 121.89062 C 1507.073 121.97213 1495.1035 130.3482 1495.1035 146.7168 C 1495.1035 154.7039 1501.9955 162.06087 1511.0723 163.76367 C 1516.0589 164.69917 1522.7121 163.21098 1539.3984 157.42578 C 1557.9935 150.97878 1563.4601 149.86523 1576.5059 149.86523 C 1596.3913 149.86523 1612.7667 154.90472 1627.0312 165.41602 C 1641.3465 175.96492 1664.6088 201.165 1677.3008 219.875 C 1696.3792 247.9997 1708.9632 289.25073 1710.9141 330.05273 C 1712.233 357.63893 1714.3324 369.11524 1721.2559 386.58594 C 1725.7854 398.01604 1726.6406 402.84038 1726.6406 416.98828 C 1726.6406 436.04328 1729.1685 444.0672 1737.1504 450.3457 C 1741.2433 453.5649 1744.0307 454.31543 1748.9355 453.51953 C 1757.726 452.09303 1762.3545 446.86333 1763.4531 437.11523 C 1764.2532 430.01663 1763.2025 426.68486 1755.582 412.16406 C 1746.9504 395.71686 1746.7572 394.97411 1745.1953 372.06641 C 1743.4946 347.12491 1735.7288 285.73748 1732.3203 270.30078 C 1726.1622 242.41118 1711.7995 207.60964 1699.5781 190.96094 C 1691.9217 180.53084 1661.5376 151.01948 1643.207 136.20898 C 1624.7003 121.25625 1612.339 115.31732 1593.6016 115.35742 z M 1359.9238 116.85938 C 1354.4948 116.91937 1349.0385 117.63465 1343.0332 118.9707 C 1319.0979 124.2958 1302.5281 138.94486 1295.7969 160.72656 C 1290.7078 177.19496 1291.235 217.62126 1296.8867 244.16016 C 1306.5629 289.59806 1313.1623 303.77957 1341.1934 339.38867 C 1360.9724 364.51487 1369.9648 390.06663 1367.1523 413.14453 C 1365.0639 430.28133 1349.8402 487.70736 1342.6914 505.41406 C 1334.5853 525.49246 1334.6288 536.25792 1342.8438 543.32422 C 1352.6017 551.71752 1367.3882 546.81972 1373.0254 533.32812 C 1374.4414 529.93912 1375.6148 522.30724 1375.6328 516.36914 C 1375.6728 503.02944 1379.1803 486.11045 1386.8516 462.24805 C 1400.271 420.50465 1402.6308 398.31364 1395.9746 376.46484 C 1391.2298 360.88984 1383.8826 347.26468 1362.1152 313.67188 C 1352.9494 299.52688 1342.8845 282.30068 1339.748 275.39258 C 1331.4699 257.15998 1326.6077 231.61282 1326.3418 204.94922 C 1326.1417 184.88492 1326.5823 181.60133 1330.5469 173.54883 C 1333.3323 167.89143 1337.7856 162.69782 1342.5547 159.54492 C 1349.2163 155.14102 1351.9754 154.5332 1365.3027 154.5332 C 1379.0179 154.5332 1381.8003 155.19206 1394.3867 161.41406 C 1411.5446 169.89586 1440.5129 193.78446 1454.3359 210.85156 C 1460.0237 217.87446 1477.4904 242.80069 1493.1504 266.24219 C 1508.8104 289.68369 1528.4237 317.41253 1536.7363 327.86133 C 1559.2549 356.16623 1587.1305 383.96372 1607.5234 398.45312 C 1618.0717 405.94782 1629.2429 415.80842 1634.248 422.04102 C 1645.9238 436.58042 1652.7373 441.1543 1662.7207 441.1543 C 1668.9061 441.1543 1671.9182 440.02895 1675.6035 436.34375 C 1679.7435 432.20375 1680.282 430.36276 1679.4668 423.13086 C 1678.2102 411.98286 1671.7593 405.39477 1652.9746 396.07227 C 1636.1339 387.71457 1630.4328 383.33017 1604.6191 358.88867 C 1581.2099 336.72347 1545.1292 289.13473 1514.543 240.08203 C 1486.5966 195.26313 1471.3647 177.50113 1437.5781 150.33203 C 1416.9808 133.76893 1407.2475 128.10031 1389.2598 122.19531 C 1377.9455 118.481 1368.9723 116.75938 1359.9238 116.85938 z M 2440.9785 122.4082 C 2438.1705 122.39635 2435.2426 122.98693 2432.291 124.22461 C 2428.7871 125.69381 2419.1981 131.45906 2410.9824 137.03516 C 2402.7665 142.61126 2388.483 150.0201 2379.2402 153.5 C 2342.1299 167.4721 2330.0042 172.74768 2314.6895 181.58398 C 2281.1442 200.93898 2264.4452 200.12665 2239.0527 177.90625 C 2225.987 166.47265 2216.9822 163.50182 2207.4551 167.48242 C 2194.4064 172.93462 2192.2223 191.34698 2203.3809 201.83008 C 2205.7969 204.09968 2214.693 208.83005 2223.1504 212.34375 C 2231.6079 215.85745 2242.4604 221.25469 2247.2656 224.33789 C 2252.0708 227.42109 2258.9427 231.21904 2262.5371 232.77734 C 2270.1976 236.09854 2286.1982 236.60517 2293.6914 233.76367 C 2296.5825 232.66737 2305.4134 227.6273 2313.3145 222.5625 C 2333.0768 209.8943 2349.8106 201.7383 2373.7891 193.0918 C 2410.1257 179.9889 2449.6378 163.23154 2454.1172 159.02344 C 2460.3407 153.17504 2462.9471 144.2606 2460.3965 137.5293 C 2456.7465 127.89667 2449.4027 122.44376 2440.9785 122.4082 z M 398.28125 126.03906 C 392.94581 126.18608 387.58739 128.21142 383.3457 132.45312 C 373.80405 141.99473 375.52689 160.04129 386.625 166.80859 C 389.85682 168.77919 395.44073 170.39062 399.03516 170.39062 C 413.18856 170.39062 423.33352 157.73077 420.64844 143.41797 C 418.56811 132.32892 408.4671 125.75839 398.28125 126.03906 z M 1951.3398 137.72852 C 1944.2056 137.72852 1942.109 138.65047 1937.4844 143.82617 C 1930.4719 151.67457 1930.2313 162.61571 1936.625 182.91211 C 1939.1487 190.92421 1943.7644 209.66349 1946.8809 224.55469 C 1949.9973 239.44589 1955.0729 260.87117 1958.1602 272.16797 C 1966.1346 301.34797 1968.8203 329.70843 1966.0059 355.01953 C 1964.7818 366.02993 1963.7793 383.66072 1963.7793 394.19922 C 1963.7793 406.37442 1962.3589 420.21632 1959.8828 432.16602 C 1955.5061 453.28622 1956.117 460.79195 1962.7988 468.00195 C 1968.9559 474.64545 1980.6643 474.8551 1987.082 468.4375 C 1993.2705 462.2489 1994.6318 452.34732 1991.9258 433.22852 C 1989.514 416.18712 1989.9681 407.01752 1996.6211 338.32812 C 1999.8437 305.05703 1998.9678 295.83184 1989.7852 266.33594 C 1979.6537 233.79224 1973.1805 201.04472 1973.1465 182.16602 C 1973.0871 149.02612 1967.5433 137.72852 1951.3398 137.72852 z M 208.85742 141.07227 C 197.75987 141.36173 187.5293 149.96053 187.5293 163.14453 C 187.5293 171.44923 192.13418 179.17044 199.42188 183.08594 C 202.02645 184.48534 207.41082 185.15012 212.25195 184.66992 C 224.29562 183.47552 230.98438 175.65162 230.98438 162.76172 C 230.98438 154.86182 230.11185 152.43999 225.66406 147.99219 C 220.72187 143.04999 214.67042 140.92064 208.85742 141.07227 z M 2500 150.98633 C 2489.5035 167.08674 2479.8173 182.03173 2475.8984 188.28516 C 2462.0704 210.35076 2456.7379 221.72586 2442.7109 259.09766 C 2435.7727 277.58326 2427.7584 297.37417 2424.9004 303.07617 C 2417.0013 318.83627 2413.2075 333.71182 2414.6445 343.29492 C 2416.2991 354.32822 2445.7562 412.62584 2453.0059 419.21484 C 2468.418 433.22214 2492.0889 416.7665 2484.0625 397.625 C 2482.6898 394.3512 2477.5885 387.05074 2472.7266 381.40234 C 2456.7675 362.86184 2451.9224 348.27772 2455.1211 328.41602 C 2457.2955 314.91432 2478.8724 260.58328 2495.291 227.27148 C 2496.5914 224.63315 2498.2278 221.5473 2500 218.29297 L 2500 150.98633 z M 464.42383 177.87305 C 455.89427 177.87305 447.58398 186.60155 447.58398 195.56055 C 447.58398 204.84935 451.77537 212.18838 465.20898 226.42188 C 471.50919 233.09727 480.83444 243.58371 485.93164 249.72461 C 496.80227 262.82111 500.77602 266.45162 523.21875 283.79492 C 545.75593 301.21112 556.13875 312.99259 578.5293 346.55469 C 616.31003 403.18559 618.72261 404.66625 678.1875 407.68555 C 697.7001 408.67635 723.74852 410.71565 736.07227 412.21875 C 748.39602 413.72185 772.3439 416.15671 789.28906 417.62891 C 825.64363 420.78731 836.96523 424.30459 850.79883 436.74219 C 855.97343 441.39449 865.03179 452.04877 870.92969 460.41797 C 883.39649 478.10847 899.7531 494.88932 908.91211 499.38672 C 912.44021 501.11932 924.99058 507.12066 936.80078 512.72266 C 969.17948 528.08086 979.9553 539.26887 993.9707 572.07617 C 997.6491 580.68637 1005.9725 599.91554 1012.4668 614.80664 C 1028.3603 651.24984 1044.4607 697.25535 1049.8594 721.65625 C 1053.1841 736.68328 1055.6349 744.8071 1059.041 750 L 1093.5586 750 C 1097.0049 742.02288 1093.8505 730.02585 1084.1055 714.5957 C 1074.9439 700.0892 1071.4234 691.16416 1064.6348 665.22266 C 1061.8129 654.43936 1052.798 628.81098 1044.6016 608.27148 C 1008.8584 518.70218 997.74159 503.00087 955.86719 482.94727 C 918.77579 465.18417 910.41567 458.0316 884.81836 422.1543 C 863.74296 392.6151 850.33249 386.39908 798.625 382.20898 C 780.65285 380.75258 754.60446 378.27598 740.74023 376.70508 C 726.87601 375.13428 702.08792 373.1016 685.65625 372.1875 C 653.79257 370.4149 647.16752 368.90262 634.96289 360.60742 C 626.3426 354.74852 621.21366 348.64127 605.37695 325.38477 C 589.3701 301.87847 576.27017 287.70332 550.28125 265.76172 C 509.0488 230.95052 500.64548 222.01303 490.42188 202.11133 C 480.63144 183.05283 475.07504 177.87305 464.42383 177.87305 z M 290.60547 182.14062 C 288.6011 182.22179 286.64703 182.66853 284.45312 183.39258 C 272.56443 187.31618 268.34779 200.65435 275.94336 210.31055 C 281.6614 217.57985 284.93254 218.77956 306.86523 221.66016 C 322.53267 223.71786 329.6465 225.68776 340.04883 230.84766 C 370.66728 246.03526 388.18936 262.07947 394.35547 280.57227 C 397.8908 291.17517 400.76952 313.09699 400.85352 330.05469 C 400.93608 346.71749 404.96864 371.43791 410.14453 387.00391 C 415.59799 403.40471 429.64269 431.78338 445.72266 458.89258 C 453.03255 471.21628 465.8309 495.02573 474.16406 511.80273 C 492.29615 548.30763 499.56746 557.19178 519.91406 567.70508 C 535.77997 575.90318 569.051 587.18406 586.69336 590.34766 C 592.85524 591.45256 599.99699 592.72814 602.56445 593.18164 C 605.1319 593.63484 614.49636 593.66078 623.37305 593.23828 C 636.35404 592.62048 643.66135 590.9655 660.7168 584.7832 C 672.3797 580.5556 689.90385 575.23674 699.66016 572.96484 C 709.41647 570.69294 719.24781 567.82931 721.50586 566.59961 C 732.82652 560.43441 735.04056 544.24662 725.95508 534.07812 C 717.83736 524.99292 709.18861 525.61529 686.28906 536.93359 C 639.39751 560.10989 590.48615 561.29008 545.52539 540.33008 C 524.41089 530.48658 517.80213 522.63446 495.41992 480.78906 C 487.57907 466.12996 475.5742 445.12282 468.74219 434.10742 C 453.2074 409.06052 439.46263 380.43416 435.36719 364.59766 C 433.47725 357.28956 431.62731 339.4589 430.7168 319.7832 C 428.53065 272.5425 422.27438 256.50148 396.87305 232.98438 C 383.53782 220.63827 369.09333 212.95715 349.17969 207.62305 C 340.00446 205.16535 328.39846 200.0198 317.81055 193.7168 C 303.08116 184.94847 296.61858 181.89712 290.60547 182.14062 z M 2038.666 190.94336 C 2025.1477 190.94336 2016.3735 201.16887 2018.5234 214.41797 C 2019.1133 218.05227 2022.5686 224.97157 2026.2031 229.79297 C 2032.9459 238.73757 2046.0631 256.88145 2058.5684 274.56445 C 2062.4055 279.98985 2074.7287 292.17287 2085.9551 301.63867 C 2130.1915 338.93767 2146.9407 371.13572 2144.0215 413.26172 C 2142.5871 433.95852 2145.6195 444.98942 2153.9961 449.54102 L 2153.9961 449.53906 C 2160.3688 453.00256 2164.3841 453.00019 2171.1035 449.52539 C 2181.8999 443.94239 2184.7249 431.02294 2179.4668 411.27734 C 2177.9628 405.62894 2175.3769 391.80625 2173.7207 380.56055 C 2168.1397 342.66255 2163.1717 334.66854 2113.502 283.68164 C 2077.7496 246.98114 2071.1671 238.43298 2063.252 218.42188 C 2056.6679 201.77558 2046.9766 190.94336 2038.666 190.94336 z M 1569.6543 191.03906 C 1566.7052 191.1395 1563.7525 192.03995 1560.627 193.65625 C 1554.0786 197.04255 1550.3226 205.70963 1551.8574 213.89062 C 1553.1339 220.69533 1560.4733 228.3939 1577.8516 241.1582 C 1584.7823 246.2489 1593.7566 255.91511 1602.6602 267.87891 C 1618.6678 289.38791 1619.8437 291.47417 1626.6406 310.44727 C 1631.727 324.64617 1636.7825 331.95015 1643.5488 334.87695 C 1654.6197 339.66565 1666.8968 330.4442 1666.8828 317.3457 C 1666.8755 309.1265 1664.2339 303.71562 1653.1309 289.16992 C 1649.4704 284.37442 1643.0918 273.96702 1638.9551 266.04102 C 1634.8184 258.11512 1627.6138 247.00778 1622.9453 241.35938 C 1618.2768 235.71098 1608.2507 223.4419 1600.666 214.0957 C 1587.3159 197.6452 1578.5017 190.73775 1569.6543 191.03906 z M 47.664062 191.21484 C 40.293417 191.19546 32.920334 194.98098 28.642578 202.22266 C 22.593818 212.46236 26.358559 227.41288 36.349609 232.83398 C 42.858049 236.36538 48.349274 236.43972 56.333984 233.10352 C 68.952914 227.83092 72.808711 208.85692 63.400391 198.32812 C 59.128299 193.54721 53.396787 191.22992 47.664062 191.21484 z M 1385.918 206.85352 C 1383.9834 206.85241 1382.0202 207.17167 1380.043 207.82422 C 1372.0123 210.47452 1367.623 216.95486 1367.623 226.16016 C 1367.623 234.49186 1370.9903 240.28317 1384.4023 255.00977 C 1390.1184 261.28607 1404.6313 283.32022 1418.8359 307.29102 C 1458.8287 374.78002 1459.045 375.09734 1476.0449 391.33594 C 1503.9087 417.95164 1523.6986 438.02108 1535.1445 451.26758 C 1542.1768 459.40608 1551.9035 467.76382 1561.6855 474.07422 C 1572.1192 480.80532 1580.4916 488.13217 1587.5098 496.67188 C 1593.2219 503.62218 1600.5932 510.77887 1603.8887 512.57617 C 1615.3772 518.84127 1626.2218 516.0496 1630.5391 505.7168 C 1635.9458 492.7766 1629.9378 484.30263 1607.9141 473.80273 C 1590.9779 465.72853 1589.6193 464.58006 1553.3809 427.66406 C 1488.4368 361.50576 1482.1139 353.75486 1458.5234 311.38086 C 1450.5191 297.00306 1437.6002 275.57583 1429.8145 263.76562 C 1422.0289 251.95533 1414.096 238.09193 1412.1855 232.95703 C 1405.9559 216.21382 1396.3644 206.8595 1385.918 206.85352 z M 140.69727 208.35156 C 135.78141 208.15759 130.57369 209.68237 125.74023 213.48438 C 114.31961 222.46787 116.00264 243.01499 128.73828 250.08789 C 138.71325 255.62769 153.97294 251.26582 159.06445 241.41992 C 167.56402 224.98352 155.44482 208.93348 140.69727 208.35156 z M 2387.9277 228.89648 C 2381.0171 229.2302 2374.2215 234.01398 2361.3203 246.25391 C 2353.5185 253.65591 2342.5938 262.64246 2337.0449 266.22266 C 2324.9575 274.02176 2315.7719 283.32009 2313.0664 290.49609 C 2311.9765 293.38719 2311.0879 300.52889 2311.0879 306.36719 C 2311.0907 319.97019 2323.7385 371.03421 2331.0605 387.00391 C 2344.0572 415.35061 2391.6984 467.07784 2419.3848 482.90234 C 2428.1141 487.89164 2442.105 496.57427 2450.4746 502.19727 C 2458.8444 507.82017 2468.927 513.57272 2472.8809 514.98242 L 2472.8809 514.98438 C 2482.0855 518.26568 2483.5252 518.26837 2491.3145 515.01367 C 2495.1089 513.42828 2498.0444 510.89168 2500 507.77344 L 2500 487.2793 C 2496.4427 480.6414 2489.5391 476.91159 2474.4414 472.76953 C 2453.5596 467.04073 2444.4625 462.74156 2429.6543 451.59766 C 2394.4908 425.13556 2369.2507 391.31701 2355.1133 351.72461 C 2348.2942 332.62731 2347.1208 319.08611 2351.2168 306.75391 C 2355.5634 293.66731 2364.5235 285.17403 2384.334 275.36133 C 2403.4027 265.91593 2410.0488 259.0869 2410.0488 248.9375 C 2410.0488 239.8141 2404.4918 232.74519 2395.1074 229.93359 C 2392.5483 229.16687 2390.2313 228.78525 2387.9277 228.89648 z M 231.42383 241.35938 C 220.19213 241.35938 213.24972 246.07062 210.66016 255.44922 C 208.21965 264.28812 211.11035 273.62668 218.11133 279.51758 C 222.46792 283.18338 225.84851 284.29567 232.5293 284.26367 C 246.17732 284.19877 253.39258 276.44364 253.39258 261.83594 C 253.39258 255.47954 252.23095 252.89698 247.04297 247.70898 C 241.52784 242.19388 239.47776 241.35938 231.42383 241.35938 z M 320.39648 278.95117 C 313.95387 278.97213 307.40841 281.6842 302.4668 287.95508 C 301.21575 289.54268 300.16541 294.76896 300.13281 299.56836 C 300.08665 306.35286 301.18071 309.61084 305.05469 314.21484 C 307.79513 317.47164 311.78611 320.88729 313.92383 321.80469 C 319.21999 324.07739 330.97994 322.62819 336.47852 319.02539 C 338.96437 317.39659 341.99697 312.72829 343.21875 308.65039 C 348.24192 291.88453 334.57025 278.90507 320.39648 278.95117 z M 0 281.06836 L 0 305.1875 C 2.0644272 301.48075 3.1816406 296.8822 3.1816406 291.68164 C 3.1816406 286.93341 2.5225568 284.28577 0 281.06836 z M 73.027344 290.06445 C 69.309606 290.12257 65.422022 291.2503 61.652344 293.54883 C 54.085954 298.16243 51.107422 303.77356 51.107422 313.41406 C 51.107422 321.69026 54.837488 328.47572 61.517578 332.35352 C 67.653268 335.91522 80.912978 334.15515 86.335938 329.06055 C 93.610777 322.22615 95.626823 313.47276 92.070312 304.16016 C 88.567452 294.98801 81.206367 289.93659 73.027344 290.06445 z M 163.37109 303.20898 C 152.27328 303.21341 141.35742 311.70908 141.35742 325.38477 C 141.35742 335.93137 146.7666 342.75845 158.16211 346.59375 C 161.67451 347.77595 171.04542 346.07316 175.15625 343.50586 C 183.8113 338.10076 187.03433 321.94984 181.22656 313.08594 C 176.75412 306.26015 170.02978 303.20633 163.37109 303.20898 z M 490.38086 316.04883 C 480.02524 316.04883 473.72461 322.40763 473.72461 332.86133 C 473.72461 342.10743 477.10605 348.99154 488.66211 363.27344 C 493.48509 369.23414 501.44831 381.84207 506.35742 391.29297 C 525.90543 428.92597 549.27684 466.14656 560.55273 477.60156 C 583.53575 500.94956 604.93669 504.58263 658.52148 494.23633 C 678.52052 490.37493 708.28605 490.75702 728.60352 495.13672 C 775.02615 505.14352 798.5586 510.46328 807.02734 512.86328 C 827.19817 518.57978 840.49493 515.54506 845.98633 503.97266 C 849.76733 496.00476 849.80613 492.86615 846.20703 485.90625 C 841.82103 477.42475 834.25806 474.67975 810.13086 472.81445 C 798.15417 471.88855 780.37153 469.36227 770.61523 467.20117 C 717.44607 455.42397 687.95221 453.61928 647.12891 459.64258 C 617.76429 463.97528 608.78565 463.60922 595.67578 457.54102 C 584.20111 452.22972 573.19371 439.33596 557.73828 413.10156 C 550.18977 400.28856 539.27744 382.96241 533.48828 374.59961 C 527.69913 366.23681 520.15513 352.13512 516.72461 343.26172 C 509.10267 323.54682 501.84499 316.04883 490.38086 316.04883 z M 253.44336 334.04883 C 232.80459 333.50773 224.45979 359.36557 240.82812 373.13867 C 245.90148 377.40757 247.93554 377.94853 255.99805 377.17383 C 263.07113 376.49413 266.32543 375.09903 269.53711 371.36523 C 275.31921 364.64313 276.7447 355.53779 273.30469 347.30469 C 269.79259 338.89909 262.89508 334.29673 253.44336 334.04883 z M 2057.4551 337.38477 C 2052.6621 337.31889 2047.775 339.30161 2043.8789 343.66211 C 2036.793 351.59231 2036.97 356.517 2045.1777 379.9707 C 2051.0294 396.6918 2051.9162 401.5257 2052.1152 417.8125 C 2052.2741 430.8138 2051.3705 439.56535 2049.1406 446.62695 C 2043.0773 465.82745 2045.7732 480.66523 2056.1621 485.26953 C 2063.5743 488.55463 2069.8724 487.00307 2076.748 480.19727 L 2082.3496 474.65234 L 2082.1289 451.94922 C 2081.8538 423.54272 2077.8072 362.14718 2075.625 353.27148 C 2073.1721 343.29592 2065.4434 337.49456 2057.4551 337.38477 z M 1298.4102 362.77148 C 1282.9121 362.85428 1278.5474 370.49013 1276.6504 400.83203 C 1274.0265 442.80123 1260.0821 470.82044 1214.5039 525.71094 C 1190.5563 554.55154 1165.2074 586.88742 1153.4414 603.60352 C 1148.02 611.30582 1136.9708 624.4361 1128.8867 632.7832 C 1108.7149 653.6111 1104.3706 664.96043 1112.5781 675.39453 C 1114.7739 678.18603 1118.3449 681.19824 1120.5137 682.08594 C 1125.2272 684.01544 1134.1181 682.63563 1139.6914 679.11133 C 1141.9079 677.70963 1145.8989 671.91101 1148.5605 666.22461 C 1151.2221 660.53831 1155.4973 651.47363 1158.0625 646.08203 C 1160.6277 640.69043 1168.3024 629.97779 1175.1172 622.27539 C 1181.932 614.57309 1202.0878 590.2051 1219.9062 568.125 C 1237.7247 546.045 1258.1558 520.83878 1265.3086 512.10938 C 1284.2952 488.93808 1293.8498 469.5248 1302.6348 436.2793 C 1306.6755 420.9879 1311.3027 404.80044 1312.916 400.30664 C 1320.3369 379.63684 1313.7866 362.68948 1298.4102 362.77148 z M 336.42773 366.46484 C 318.73754 366.46484 307.83562 384.39524 315.9668 400.11914 C 317.52017 403.12304 321.09302 406.83007 323.9043 408.35547 C 326.7156 409.88087 332.66936 411.16212 337.13672 411.20312 C 343.93614 411.26572 346.29291 410.24419 351.60742 404.92969 C 357.26205 399.27499 357.95302 397.4896 357.91602 388.5918 C 357.85517 373.9477 350.58809 366.46484 336.42773 366.46484 z M 12.380859 376.66211 C 11.212464 376.65605 10.043992 376.76268 8.8867188 376.99414 C 5.708978 377.62969 2.6387753 379.38993 0 381.81445 L 0 417.46875 C 1.6359784 418.79022 3.4672159 419.77253 5.4453125 420.32812 C 11.750953 422.09923 18.359932 421.41174 24.289062 418.36914 C 29.243082 415.82694 34.912109 405.56583 34.912109 399.14062 C 34.912109 387.38321 23.675351 376.72068 12.380859 376.66211 z M 104.10938 383.91602 C 97.883504 383.85454 91.624721 386.48016 87.144531 392.17578 C 79.314691 402.12988 83.985894 421.46021 95.402344 426.34961 C 110.9691 433.01651 130.55345 416.03776 125.53516 400.22656 C 122.23784 389.83766 113.20873 384.00586 104.10938 383.91602 z M 191.5 391.16211 C 189.23022 391.08836 187.20773 391.84431 183.68164 393.51758 C 169.76964 400.11918 167.14187 418.29668 178.61719 428.55078 C 182.5888 432.09968 186.40036 433.68555 190.96094 433.68555 C 216.13896 433.68555 221.78493 401.18823 198.06445 392.79883 C 195.17967 391.77853 193.26539 391.21947 191.5 391.16211 z M 1887.9414 418.83008 C 1884.7326 418.90863 1881.4271 419.71792 1878.2227 421.375 C 1865.2269 428.0953 1863.0295 446.69619 1874.0664 456.55859 C 1878.5645 460.57789 1881.6728 461.69336 1888.373 461.69336 C 1895.6181 461.69336 1897.9078 460.71725 1903.2812 455.34375 C 1908.6547 449.97025 1909.6289 447.68055 1909.6289 440.43555 C 1909.6289 427.57156 1899.4016 418.54953 1887.9414 418.83008 z M 270.29102 437.41992 C 254.53639 437.41992 244.0751 447.93109 244.0625 463.77539 C 244.05494 473.10359 248.82099 481.24252 255.98438 484.13672 C 265.7894 488.09842 276.39153 485.08247 284.98047 475.88867 C 288.27255 472.36457 289.72223 468.28605 290.3418 460.81445 C 291.14758 451.09795 290.85357 450.23439 284.61523 443.99609 C 279.20459 438.58539 276.66589 437.41992 270.29102 437.41992 z M 367.76758 441.82422 C 365.47399 441.85924 363.14735 442.2332 360.85352 442.99023 C 346.43692 447.74813 341.91342 467.25285 352.44531 479.24805 C 355.5756 482.81325 359.98669 486.0906 362.24805 486.5293 C 379.84327 489.942 391.56641 480.85158 391.56641 463.79688 C 391.56641 451.31781 380.15298 441.63508 367.76758 441.82422 z M 1458.0742 445.27344 C 1452.3207 445.308 1446.6719 447.43775 1442.4141 452.20312 C 1433.0645 462.66723 1437.1492 481.04755 1450.4043 488.15625 C 1466.1379 496.59435 1483.9004 486.80466 1483.9004 469.69336 C 1483.9004 455.2604 1470.7319 445.1974 1458.0742 445.27344 z M 2314.4453 456.0918 C 2304.67 456.0918 2300.1162 458.80898 2296.8691 466.58008 C 2292.6857 476.59268 2296.0629 485.91261 2307.8965 497.00781 C 2353.9842 540.21881 2359.1915 544.46149 2391.7676 565.37109 C 2431.4064 590.81419 2441.1504 596.04514 2454.8633 599.24414 C 2466.7028 602.00615 2483.4088 601.07652 2500 597.2793 L 2500 563.49609 C 2496.1779 564.83448 2492.2758 565.88238 2488.3594 566.57227 C 2463.8478 570.88997 2441.3522 561.95768 2394.1777 529.17578 C 2357.1652 503.45528 2349.3735 496.18798 2339.3594 478.04688 C 2329.8673 460.85147 2324.4665 456.0918 2314.4453 456.0918 z M 64.929688 469.59961 C 59.834515 469.45327 54.71055 471.08816 50.583984 474.96484 C 40.340154 484.58844 40.974087 499.97009 51.998047 509.24609 C 65.809607 520.86779 87.207031 510.07212 87.207031 491.48242 C 87.207031 478.8591 76.139068 469.92157 64.929688 469.59961 z M 161.12695 471.0293 C 139.49786 471.0293 132.35325 498.79506 151.04883 510.19336 C 172.39126 523.20556 194.90512 500.14845 181.23242 479.28125 C 177.69985 473.88985 170.73125 471.0293 161.12695 471.0293 z M 1805.2754 477.17578 C 1804.1709 477.18712 1803.0797 477.28902 1802.0176 477.48828 C 1781.4803 481.34098 1773.9955 509.47704 1790.7852 519.71484 C 1811.4827 532.33534 1835.7461 509.25095 1824.5469 487.59375 C 1821.3619 481.4348 1813.0068 477.09643 1805.2754 477.17578 z M 1701.2266 484.89258 C 1693.468 485.14464 1685.9108 489.21203 1682.6016 495.61133 C 1676.4956 507.41913 1682.0878 523.53674 1693.4258 526.80664 C 1702.0459 529.29254 1703.5528 529.24905 1710.5859 526.31055 C 1719.1733 522.72255 1722.9062 516.67195 1722.9062 506.34375 C 1722.9062 495.86745 1718.2148 489.0402 1708.9023 485.9668 C 1706.4213 485.14797 1703.8127 484.80856 1701.2266 484.89258 z M 2144.7422 486.10938 C 2143.4001 486.10443 2141.8074 486.25164 2139.7773 486.48047 C 2127.2688 487.89047 2120.627 495.54237 2120.627 508.54688 C 2120.627 516.50228 2121.4913 518.86038 2126.0859 523.45508 C 2130.629 527.99838 2133.0542 528.90805 2140.5566 528.87305 C 2154.5087 528.80875 2161.707 521.17516 2161.707 506.44336 C 2161.707 500.03196 2160.5493 497.50632 2155.1211 492.07812 C 2150.5416 487.49863 2148.7685 486.1242 2144.7422 486.10938 z M 1899.7871 502.01953 C 1889.6588 501.79313 1882.2261 506.47204 1878.4824 515.43164 C 1874.915 523.96974 1877.5558 534.38328 1884.7188 540.01758 C 1888.0756 542.65808 1892.3436 543.85156 1898.4258 543.85156 C 1909.4148 543.85156 1916.1667 538.99266 1919.1875 528.91016 C 1923.2635 515.30536 1913.906 502.33483 1899.7871 502.01953 z M 321.50586 510.17773 C 318.58193 510.22266 315.43701 510.97875 312.1582 512.47266 C 303.04204 516.62626 301.47591 522.90625 302.94336 549.43945 C 304.13816 571.04325 303.87949 574.42322 300.18945 585.51172 C 295.91283 598.36292 287.28396 613.44392 264.73047 647.48242 C 238.46352 687.12532 228.2197 695.72691 188.32812 711.62891 C 170.90385 718.57481 160.33851 721.5856 148.0957 723.0957 C 138.96427 724.222 128.69027 726.31635 125.26367 727.74805 C 118.51802 730.56655 111.49948 740.25633 111.48828 746.76953 C 111.48664 747.72154 111.76376 748.82693 112.24023 750 L 163.12305 750 C 172.60303 745.54993 184.8105 740.90461 194.57422 738.13867 C 220.94784 730.66747 242.46014 720.35272 254.66211 709.32812 C 259.98176 704.52172 270.75046 690.95163 278.59375 679.17383 C 286.43703 667.39613 298.33713 650.82636 305.03906 642.35156 C 321.38015 621.68796 327.66451 608.83506 330.13867 591.00586 C 331.2436 583.04346 333.41972 570.22574 334.97656 562.52344 C 339.59972 539.65084 340.11775 526.60448 336.66406 519.92578 C 333.30116 513.42265 327.93849 510.0789 321.50586 510.17773 z M 413.63281 512.04883 C 405.73575 512.0639 398.30997 517.00028 395.40039 525.81641 C 394.25073 529.30001 393.55579 542.11871 393.80859 555.19531 C 394.2343 577.21551 393.99271 578.93821 389.07031 589.06641 C 382.17273 603.25861 381.09096 610.90655 384.85742 618.84375 C 389.54545 628.72305 396.77323 631.8873 418.4043 633.5293 C 429.69824 634.3866 443.33031 636.86228 452.25195 639.67578 C 460.46779 642.26668 473.59856 646.14903 481.43164 648.30273 C 489.26468 650.45643 507.97301 656.78905 523.00586 662.37695 C 551.98842 673.15015 587.48887 682.74428 609.09961 685.64258 C 628.413 688.23288 650.4093 686.51133 666.18555 681.17383 C 682.58697 675.62483 708.70012 659.98509 746.8457 632.86719 C 795.35123 598.38439 829.2168 584.69874 866.7793 584.39844 C 888.6162 584.22384 898.17392 586.54845 913.33203 595.71875 C 921.13273 600.43795 927.26602 602.6561 934.07422 603.2207 C 942.75672 603.9407 944.38348 603.44877 950.04688 598.38867 C 955.39918 593.60627 956.32134 591.58093 956.14844 584.99023 C 955.92374 576.41983 949.68915 568.13109 940.78125 564.55859 C 925.68655 558.50499 887.39729 548.89914 875.12109 548.08594 C 851.26789 546.50564 796.93042 558.74694 776.2168 570.36914 C 770.5684 573.53824 755.44465 583.89712 742.60742 593.38672 C 705.8567 620.55402 673.04155 639.52618 651.94922 645.80078 C 626.75423 653.29588 587.50679 647.54662 533.49805 628.45312 C 484.75395 611.22063 479.04845 609.62427 459.13281 607.63477 C 436.86519 605.41027 428.01587 601.66108 423.01367 592.33398 C 417.88621 582.77328 418.73024 574.41523 426.4043 558.73633 C 431.74572 547.82333 433.27055 542.41344 433.40625 533.89844 C 433.56615 523.86484 433.10303 522.58605 427.48242 517.56055 C 423.27862 513.8017 418.37105 512.03979 413.63281 512.04883 z M 1990.4434 512.57617 C 1987.3055 512.45266 1984.0687 513.10912 1980.9258 514.73438 C 1972.7683 518.95267 1969.3809 524.75492 1969.3809 534.51562 C 1969.3809 544.47413 1973.0915 550.6414 1981.291 554.3125 C 1992.1587 559.178 2005.0517 553.91688 2009.7363 542.70508 C 2015.7601 528.28832 2004.0407 513.11139 1990.4434 512.57617 z M 1536.0762 528.88867 C 1530.9293 528.6882 1526.4043 530.84962 1521.7695 535.48438 C 1515.4548 541.79898 1515.2312 542.48837 1516.0059 553.19727 C 1516.846 564.81307 1521.3584 572.25159 1529.6465 575.67969 C 1537.8593 579.07669 1547.1173 577.65007 1553.4258 572.01367 C 1558.9916 567.04047 1559.5234 565.61538 1559.5234 555.67578 C 1559.5234 543.21298 1555.7327 536.42789 1546.1699 531.77539 C 1542.4764 529.97847 1539.1643 529.00896 1536.0762 528.88867 z M 1443.291 529.27734 C 1442.1899 529.28127 1441.1158 529.40558 1440.0859 529.66406 C 1432.3427 531.60746 1424.1391 540.29014 1422.9453 547.80664 C 1421.5122 556.82804 1426.4291 566.93964 1434.084 570.71484 C 1450.0168 578.57204 1467.0957 568.22896 1467.0957 550.72266 C 1467.0957 540.46173 1453.9347 529.23939 1443.291 529.27734 z M 2071.2012 531.33789 C 2053.4005 531.98344 2044.7518 553.90458 2058.9727 566.72461 C 2068.48 575.29541 2085.4162 572.55618 2090.3887 561.64258 C 2096.6268 547.95188 2089.0578 533.24145 2074.8809 531.50195 C 2073.6169 531.34687 2072.3879 531.29485 2071.2012 531.33789 z M 229.22461 532.44727 C 221.91331 532.31089 214.67229 535.48614 210.45312 542.40625 C 202.85683 554.86525 207.80793 573.00343 220.28516 578.42773 L 220.28516 578.43359 C 228.00168 581.78259 229.70048 581.78319 237.7168 578.43359 C 250.02043 573.29289 255.65684 561.04244 251.50586 548.46484 C 248.14133 538.27032 238.62486 532.62261 229.22461 532.44727 z M 123.14844 550.00586 C 102.76521 550.11305 91.922515 578.10069 111.83594 590.59375 C 120.8926 596.27555 132.96579 594.71002 139.89648 586.95312 C 150.13749 575.49152 145.30404 556.01259 131.05078 551.30859 C 128.29907 550.40045 125.65164 549.9927 123.14844 550.00586 z M 2282.5723 555.05469 C 2270.0367 555.05469 2263.4098 561.12849 2263.6445 572.40039 C 2263.895 584.42819 2269.0935 590.39887 2288.1172 600.51367 C 2304.1144 609.01927 2327.665 623.6663 2353.4668 641.1543 C 2360.4523 645.889 2368.6906 650.65484 2371.7715 651.74414 C 2379.219 654.37724 2382.2227 654.41192 2389.2871 651.94922 C 2396.8576 649.31012 2401.4577 640.83574 2399.8809 632.43164 C 2398.3353 624.19224 2389.9213 617.40021 2376.7812 613.78711 C 2344.6788 604.96031 2333.3548 598.27034 2310.0098 574.33984 C 2291.504 555.37014 2291.055 555.05469 2282.5723 555.05469 z M 29.900391 559.27344 C 22.984117 559.22638 16.19424 562.53174 12.304688 568.91016 C 5.4441275 580.16076 9.9096187 595.69813 21.855469 602.14453 C 44.283629 614.24773 63.389578 584.03016 44.960938 565.60156 C 40.73488 561.37549 35.279714 559.31004 29.900391 559.27344 z M 1636.7246 559.40039 C 1625.8853 559.76176 1616.4328 567.70629 1616.5391 580.04688 C 1616.6176 589.16068 1619.8799 595.73006 1626.0156 599.13086 C 1628.4701 600.49126 1634.3561 601.63392 1639.0957 601.66992 C 1649.5291 601.75002 1656.3375 597.07081 1659.4316 587.69531 C 1662.3189 578.94691 1660.2877 571.0539 1653.7266 565.5332 C 1648.461 561.10258 1642.4023 559.2111 1636.7246 559.40039 z M 1297.082 562.52344 C 1290.7597 562.52344 1288.1663 563.69305 1282.9863 568.87305 C 1277.3941 574.46525 1276.6367 576.37894 1276.6367 584.93164 C 1276.6367 593.48434 1277.3941 595.39608 1282.9863 600.98828 C 1288.3719 606.37388 1290.6416 607.33789 1297.9512 607.33789 C 1305.0797 607.33789 1307.7033 606.28973 1313.1406 601.26953 C 1321.3764 593.66543 1323.2454 584.61012 1318.6016 574.82422 C 1314.6965 566.59472 1307.5737 562.52344 1297.082 562.52344 z M 1740.6602 564.27539 C 1737.3598 564.39191 1733.9219 565.35858 1730.3965 567.18164 C 1722.3998 571.31694 1719.1719 577.11802 1719.1719 587.35742 C 1719.1719 594.88622 1720.0954 597.34541 1724.6289 601.87891 C 1729.2557 606.50581 1731.5593 607.33789 1739.7539 607.33789 C 1748.2574 607.33789 1750.1846 606.57318 1755.7695 600.98828 C 1761.1883 595.56928 1762.1172 593.35603 1762.1172 585.86523 C 1762.1172 578.37433 1761.1883 576.15913 1755.7695 570.74023 C 1751.277 566.24773 1746.1608 564.0812 1740.6602 564.27539 z M 1834.9395 570.92578 C 1827.4344 570.92578 1824.8551 571.87937 1820.1484 576.38867 C 1817.0127 579.39267 1813.929 584.60862 1813.2969 587.97852 C 1811.6871 596.55932 1817.3211 607.37733 1825.6035 611.61133 C 1847.6731 622.89363 1867.7234 593.62507 1849.7324 576.38867 C 1845.0256 571.87937 1842.4447 570.92578 1834.9395 570.92578 z M 1934.2539 585.36328 C 1931.76 585.34291 1929.0933 585.78014 1926.1758 586.6543 C 1916.2411 589.6307 1910.9963 597.89375 1912.1074 608.81445 C 1912.9482 617.07765 1917.1186 623.36974 1923.6348 626.21094 C 1925.6887 627.10774 1931.1228 627.51157 1935.7109 627.10938 C 1947.3523 626.08848 1954.4434 618.18407 1954.4434 606.23047 C 1954.4434 599.34157 1953.4176 596.68906 1949.0801 592.35156 C 1944.3955 587.66687 1939.7405 585.4081 1934.2539 585.36328 z M 2126.7227 596.36914 C 2123.466 596.44931 2120.104 597.27477 2116.832 598.9668 C 2109.8564 602.574 2105.6895 610.62685 2105.6895 620.50195 C 2105.6895 626.82425 2106.8571 629.41941 2112.0371 634.59961 C 2116.9376 639.50031 2119.9406 640.94727 2125.2012 640.94727 C 2138.7658 640.94727 2148.6367 631.51092 2148.6367 618.54102 C 2148.6367 605.30602 2138.3535 596.08281 2126.7227 596.36914 z M 1388.5273 596.48242 C 1380.4587 596.58262 1372.8659 600.11465 1370.0547 605.36719 C 1368.9974 607.34309 1368.1309 612.88027 1368.1309 617.67188 C 1368.1309 625.09008 1369.0747 627.32672 1374.4805 632.73242 C 1379.9919 638.24382 1382.0478 639.08008 1390.0781 639.08008 C 1405.0411 639.08008 1412.9724 629.0741 1410.4297 613.4043 C 1408.8871 603.8988 1402.1802 597.80345 1392.002 596.65625 C 1390.8424 596.52555 1389.68 596.46811 1388.5273 596.48242 z M 2029.3457 605.83398 C 2023.4895 605.81934 2017.5823 608.14567 2013.1738 613.38477 C 2008.8498 618.52347 2008.3096 620.53423 2009.0859 628.61523 C 2009.8037 636.08343 2011.1421 638.96388 2015.8516 643.17188 C 2020.5574 647.37657 2023.4771 648.409 2030.5625 648.375 C 2043.7453 648.3131 2051.5512 640.5592 2051.5332 627.5332 C 2051.5183 614.42166 2040.5257 605.86193 2029.3457 605.83398 z M 186.67383 614.80664 C 176.41539 614.80664 168.46065 619.27973 164.72852 627.14453 C 159.09795 639.01003 162.7296 651.20259 173.4707 656.49609 C 180.76421 660.09049 184.12035 660.30581 191.18555 657.62891 C 215.28207 648.49901 211.73199 614.80664 186.67383 614.80664 z M 1484.0996 617.26953 C 1481.6701 617.27379 1479.1703 617.97288 1475.3047 619.44922 C 1456.9321 626.4657 1455.6454 652.94853 1473.3027 660.63086 L 1473.3047 660.63086 C 1480.8411 663.90887 1482.6552 663.92404 1490.1816 660.7793 C 1509.4103 652.7454 1509.4563 624.81837 1490.252 618.48047 C 1487.8375 617.68361 1485.9893 617.26622 1484.0996 617.26953 z M 1246.9883 627.87695 C 1236.2332 627.87695 1229.4525 634.57394 1218.8301 655.68164 C 1212.4996 668.26054 1205.7736 678.03063 1196.3301 688.36133 C 1183.8708 701.99134 1165.2433 726.16022 1148.6758 750 L 1185.3574 750 C 1200.3555 729.50639 1216.6109 706.65037 1221.5312 699.13867 C 1226.7418 691.18397 1235.2824 681.50599 1241.9004 676.05469 C 1258.0574 662.74589 1262.1331 657.07413 1263.1504 646.48633 C 1263.9 638.68543 1263.3762 636.85495 1259.207 632.68555 C 1255.657 629.13565 1252.4605 627.87695 1246.9883 627.87695 z M 2208.5059 628.15039 C 2195.3184 628.40105 2183.4656 641.993 2187.7109 656.16211 C 2188.8629 660.00751 2191.9984 664.87928 2194.6797 666.98828 C 2200.4738 671.54598 2211.7896 672.05727 2219.4316 668.10547 C 2224.8653 665.29547 2230.7949 655.26205 2230.7949 648.87695 C 2230.7949 643.81795 2223.2162 633.07303 2217.668 630.26562 C 2214.6641 628.74568 2211.5491 628.09255 2208.5059 628.15039 z M 1575.2188 630.0918 C 1572.2444 630.17692 1569.3053 630.86573 1566.6133 632.25781 C 1560.5244 635.40651 1554.8555 645.2278 1554.8555 652.625 C 1554.8555 658.484 1562.0218 669.15382 1567.9824 672.16992 C 1584.2276 680.39012 1602.3404 666.04685 1598.8965 647.68945 C 1596.9249 637.17984 1585.8416 629.78778 1575.2188 630.0918 z M 867.10352 636.44336 C 848.21507 636.46735 843.35848 637.23939 833.16797 640.63281 C 814.69907 646.78321 796.42637 656.17846 763.40039 676.50586 C 730.02367 697.04936 722.12077 703.53693 709.13867 721.04883 C 693.62098 741.98103 690.38827 742.70195 631.50781 738.37305 C 587.15423 735.11215 562.02743 729.85928 509.20312 712.79688 C 458.40213 696.38808 422.6309 686.75808 402.77148 684.14648 C 367.51417 679.51008 348.22367 677.85102 340.14453 678.76172 C 319.65317 681.07142 310.59919 699.51339 323.58203 712.49609 C 329.7475 718.66169 337.46539 719.59291 354.22266 716.19531 C 381.45321 710.67411 411.05997 716.85918 498.93359 746.42188 C 502.49794 747.62099 506.10395 748.81596 509.70508 750 L 728.97852 750 C 729.71621 748.48362 730.58358 747.01593 731.60938 745.62695 C 745.7548 726.47335 808.31518 686.8273 842.31445 675.4707 C 860.59025 669.3662 883.82711 667.6123 905.23242 670.7207 C 925.95922 673.7305 939.39685 678.41051 954.49805 687.87891 C 970.89995 698.16281 981.96489 699.56987 990.42969 692.44727 C 1001.2694 683.32627 999.61433 668.86375 986.74023 660.21875 C 983.30453 657.91165 964.50894 651.931 943.33594 646.4082 C 906.18224 636.7171 905.83814 636.66761 876.11523 636.47461 C 872.78771 636.45301 869.80186 636.43993 867.10352 636.44336 z M 93.212891 641.78906 C 83.290012 642.03402 73.658176 648.77207 71.142578 658.79492 C 69.136548 666.78762 73.979966 678.37189 81.416016 683.36719 C 96.589666 693.56039 115.2168 683.79408 115.2168 665.64648 C 115.2168 654.85818 111.22389 647.73797 102.98047 643.82617 C 99.861086 642.34595 96.520517 641.70741 93.212891 641.78906 z M 1678.2441 644.68164 C 1657.7084 644.68164 1650.0238 673.34442 1667.6738 684.10742 C 1674.6161 688.34072 1682.0174 688.59109 1689.2754 684.83789 C 1697.1329 680.77459 1700.505 674.87544 1700.457 665.27344 C 1700.3918 651.98894 1692.5098 644.68164 1678.2441 644.68164 z M 2500 650.23633 C 2469.5215 658.75469 2454.2633 665.18263 2425.9199 680.30078 C 2385.9279 701.63228 2384.759 702.11097 2364.9043 705.32227 C 2344.9312 708.55267 2336.1224 712.47801 2332.3105 719.84961 C 2328.4845 727.24831 2330.3614 736.77957 2336.6133 741.69727 C 2345.9247 749.02177 2356.9293 746.70527 2377.4121 733.10547 C 2382.5799 729.67427 2396.4475 723.59992 2408.2305 719.60742 C 2420.0137 715.61492 2437.9396 708.47148 2448.0664 703.73438 C 2466.7868 694.9773 2479.4641 689.9916 2500 683.98242 L 2500 650.23633 z M 1775.7715 652.71094 C 1770.3348 652.79202 1765.4681 655.14998 1760.9805 659.83398 C 1756.5443 664.46458 1755.582 667.0796 1755.582 674.5293 C 1755.582 684.9771 1760.8265 692.19627 1770.418 694.95117 C 1785.1827 699.19227 1797.5957 689.18226 1797.5957 673.03516 C 1797.5957 663.98396 1792.3844 656.91946 1783.5566 654.00586 C 1780.8317 653.10658 1778.2427 652.67408 1775.7715 652.71094 z M 1330.125 658.12305 C 1326.0478 658.01732 1321.9379 659.00082 1318.2852 661.29492 C 1305.4742 669.34102 1306.1078 689.33844 1319.459 698.33594 C 1335.5753 709.19664 1355.6465 695.99742 1352.5 676.60742 C 1350.7432 665.78132 1340.5445 658.39324 1330.125 658.12305 z M 1871.8242 659.31836 C 1863.2994 659.47093 1854.8113 664.33685 1851.7988 673.46484 C 1848.2945 684.08294 1853.8453 696.63326 1863.8828 700.78516 C 1881.4603 708.05556 1899.5537 687.47227 1890.7383 670.23438 C 1886.8953 662.7197 1879.3462 659.18374 1871.8242 659.31836 z M 2282.9531 661.75781 C 2281.6305 661.7727 2280.2583 661.87424 2278.8398 662.06445 C 2267.4613 663.59035 2260.6699 671.60531 2260.6699 683.50781 C 2260.6699 693.89691 2264.2907 700.00939 2272.5801 703.61719 C 2280.0487 706.86799 2283.6431 706.89596 2291.1582 703.75586 C 2299.371 700.32426 2304.2237 692.4432 2304.0781 682.7793 C 2303.8776 669.52149 2295.7385 661.61388 2282.9531 661.75781 z M 1.8222656 667.19336 C 1.157482 667.19558 0.56071209 667.23253 0 667.30273 L 0 710.54492 C 19.667944 715.68387 35.724674 690.28395 21.195312 673.39258 C 17.943753 669.61238 14.739283 668.26368 7.3203125 667.55078 C 5.0487442 667.33251 3.2852787 667.18848 1.8222656 667.19336 z M 1968.4258 670.82422 C 1961.334 670.82422 1958.7639 671.81615 1954.2988 676.28125 C 1949.7546 680.82555 1948.8418 683.26909 1948.8418 690.87109 C 1948.8418 698.42689 1949.7274 700.82586 1953.9766 704.78516 C 1956.8008 707.41666 1960.3716 710.07119 1961.9121 710.68359 C 1963.4526 711.29599 1968.0738 711.45205 1972.1816 711.03125 C 1986.7801 709.53565 1994.2771 694.00265 1987.0996 680.12305 C 1983.4241 673.01495 1979.0248 670.82422 1968.4258 670.82422 z M 2088.8105 682.50781 C 2087.6697 682.50923 2086.4726 682.57408 2085.2109 682.69922 C 2073.3951 683.87112 2066.4766 691.75338 2066.4766 704.04688 C 2066.4766 714.43597 2070.0973 720.5505 2078.3867 724.1582 C 2089.9643 729.1971 2101.1404 725.72808 2107.6328 715.08008 C 2112.421 707.22728 2112.245 700.80011 2107.0332 693.06641 C 2102.0062 685.60677 2096.7966 682.4979 2088.8105 682.50781 z M 1417.6738 694.17969 C 1406.7082 694.35448 1398.0488 701.85332 1396.6484 714.27734 C 1395.4774 724.66664 1399.4287 732.70431 1407.7129 736.78711 C 1418.6225 742.16361 1429.1036 739.53583 1437.0547 729.42773 C 1444.234 720.30053 1440.9895 702.25622 1431.3105 697.48242 C 1426.61 695.16405 1421.9647 694.11129 1417.6738 694.17969 z M 877.90234 710.42188 C 860.02853 710.57368 849.08205 730.23137 861.81836 742.43359 C 865.68855 746.14149 869.4476 748.22776 877.2207 750 L 984.93359 750 C 973.65033 743.09141 960.03363 737.6274 941.46875 732.34375 C 930.17195 729.12855 913.78604 723.16936 905.05664 719.10156 C 896.32733 715.03376 885.75605 711.23516 881.56445 710.66016 C 880.31625 710.48891 879.09393 710.41175 877.90234 710.42188 z M 1518.6875 710.63867 C 1516.4014 710.67932 1514.0389 711.04415 1511.6504 711.75977 C 1495.4573 716.61136 1492.1584 739.89369 1504.8301 750 L 1531.5859 750 C 1538.4215 744.81071 1542.4237 735.8457 1539.75 726.16211 C 1537.0463 716.37051 1528.5941 710.46251 1518.6875 710.63867 z M 2179.5176 712.45898 C 2167.3087 712.21603 2154.2614 721.7636 2154.2441 734.86914 C 2154.2371 740.15288 2156.7032 745.9469 2160.3379 750 L 2193.4434 750 C 2203.1143 740.60923 2202.864 727.22702 2192.6328 717.61523 C 2188.9427 714.14858 2184.295 712.55405 2179.5176 712.45898 z M 1619.6484 721.23828 C 1612.1196 721.23828 1609.6605 722.16377 1605.127 726.69727 C 1600.567 731.25737 1599.668 733.67321 1599.668 741.38281 C 1599.668 744.47228 1600.1098 747.37463 1600.9355 750 L 1641.0859 750 C 1643.0592 744.72515 1642.9686 738.54346 1639.8242 732.46289 C 1635.6889 724.46599 1629.8879 721.23828 1619.6484 721.23828 z M 1278.6055 723.45703 C 1272.8074 723.44075 1266.9696 725.76177 1262.6836 730.85547 C 1258.3246 736.03572 1257.0482 743.40116 1258.4102 750 L 1299.3457 750 C 1300.155 746.94161 1300.4092 743.80143 1299.8848 741.00586 C 1297.8208 730.00405 1288.269 723.48417 1278.6055 723.45703 z M 1719.0723 735.12305 C 1717.2261 735.14225 1715.3528 735.42183 1713.4883 735.98047 C 1705.7957 738.28526 1701.0211 743.05224 1699.332 750 L 1739.4824 750 C 1739.2173 749.42254 1738.943 748.83356 1738.6133 748.1582 C 1734.5615 739.85787 1727.0722 735.03984 1719.0723 735.12305 z M 808.66211 740.70312 C 801.10764 740.58025 793.4638 743.51537 788.49219 749.42383 C 788.32489 749.62265 788.19356 749.80648 788.03711 750 L 827.97656 750 C 827.53436 749.37818 827.07041 748.7793 826.55664 748.23242 C 821.92441 743.30164 815.32782 740.81154 808.66211 740.70312 z M 2500 742.42188 C 2493.6686 744.90954 2487.4319 747.44304 2481.3594 750 L 2500 750 L 2500 742.42188 z M 1815.9355 743.64648 C 1808.8505 743.64648 1803.7283 745.64197 1799.9121 750 L 1830.4648 750 C 1830.4628 749.99791 1830.4611 749.99623 1830.459 749.99414 C 1825.1726 744.70774 1822.7415 743.64648 1815.9355 743.64648 z M 2016.2617 744.80469 C 2014.1265 744.79958 2011.8961 745.09764 2009.6113 745.72852 C 2006.3635 746.62527 2003.6886 748.05885 2001.5605 750 L 2029.8379 750 C 2026.2814 746.70529 2021.5646 744.81737 2016.2617 744.80469 z M 47.212891 745.51367 C 42.890021 745.51367 39.776604 746.68357 35.705078 750 L 61.035156 750 C 57.424986 747.2409 52.777742 745.51367 47.212891 745.51367 z M 1913.2129 745.93945 C 1908.6666 745.97109 1904.1738 747.44585 1900.4512 750 L 1925.6035 750 C 1921.8389 747.17543 1917.5072 745.90957 1913.2129 745.93945 z "
       transform="translate(96.876892,289.3219)" />
  </g>
</svg>
