<?xml version="1.0" encoding="utf-8" ?><svg xmlns="http://www.w3.org/2000/svg" xmlns:ev="http://www.w3.org/2001/xml-events" xmlns:xlink="http://www.w3.org/1999/xlink" baseProfile="tiny" version="1.2" width="100%" height="100%" viewBox="0,0,2000,240"><defs /><style>
.style_1 { font: italic 8px sans-serif; }
</style><line x1="100" y1="120" x2="100" y2="140" stroke="black" stroke-width="1.75" /><text text-anchor="start" transform="translate(100, 150) rotate(45)">1 picosecond</text><line x1="325" y1="120" x2="325" y2="140" stroke="black" stroke-width="1.75" /><text text-anchor="start" transform="translate(325, 150) rotate(45)">1 nanosecond</text><line x1="550" y1="120" x2="550" y2="140" stroke="black" stroke-width="1.75" /><text text-anchor="start" transform="translate(550, 150) rotate(45)">1 microsecond</text><line x1="775" y1="120" x2="775" y2="140" stroke="black" stroke-width="1.75" /><text text-anchor="start" transform="translate(775, 150) rotate(45)">1 millisecond</text><line x1="1000" y1="120" x2="1000" y2="140" stroke="black" stroke-width="1.75" /><text text-anchor="start" transform="translate(1000, 150) rotate(45)">1 second</text><line x1="1150" y1="120" x2="1150" y2="140" stroke="black" stroke-width="1.75" /><text text-anchor="start" transform="translate(1150, 150) rotate(45)">100 seconds</text><line x1="1225" y1="120" x2="1225" y2="140" stroke="black" stroke-width="1.75" /><text text-anchor="start" transform="translate(1225, 150) rotate(45)">1 kilosecond</text><line x1="1450" y1="120" x2="1450" y2="140" stroke="black" stroke-width="1.75" /><text text-anchor="start" transform="translate(1450, 150) rotate(45)">1 megasecond</text><line x1="1675" y1="120" x2="1675" y2="140" stroke="black" stroke-width="1.75" /><text text-anchor="start" transform="translate(1675, 150) rotate(45)">1 gigasecond</text><line x1="1900" y1="120" x2="1900" y2="140" stroke="black" stroke-width="1.75" /><text text-anchor="start" transform="translate(1900, 150) rotate(45)">1 terasecond</text><line x1="1392.8157803607155" y1="120" x2="1392.8157803607155" y2="110" stroke="black" stroke-width="0.5" /><line x1="1406.0226247898918" y1="120" x2="1406.0226247898918" y2="110" stroke="black" stroke-width="0.5" /><line x1="1415.3930300355141" y1="120" x2="1415.3930300355141" y2="110" stroke="black" stroke-width="0.5" /><line x1="1422.6612810111183" y1="120" x2="1422.6612810111183" y2="110" stroke="black" stroke-width="0.5" /><line x1="1428.5998744646904" y1="120" x2="1428.5998744646904" y2="110" stroke="black" stroke-width="0.5" /><line x1="1022.5772496747986" y1="120" x2="1022.5772496747986" y2="110" stroke="black" stroke-width="0.5" /><line x1="1035.7840941039747" y1="120" x2="1035.7840941039747" y2="110" stroke="black" stroke-width="0.5" /><line x1="1045.1544993495972" y1="120" x2="1045.1544993495972" y2="110" stroke="black" stroke-width="0.5" /><line x1="1052.4227503252014" y1="120" x2="1052.4227503252014" y2="110" stroke="black" stroke-width="0.5" /><line x1="1058.3613437787733" y1="120" x2="1058.3613437787733" y2="110" stroke="black" stroke-width="0.5" /><line x1="1063.3823530010693" y1="120" x2="1063.3823530010693" y2="110" stroke="black" stroke-width="0.5" /><line x1="1067.7317490243959" y1="120" x2="1067.7317490243959" y2="110" stroke="black" stroke-width="0.5" /><line x1="1071.5681882079493" y1="120" x2="1071.5681882079493" y2="110" stroke="black" stroke-width="0.5" /><line x1="1075" y1="120" x2="1075" y2="110" stroke="black" stroke-width="0.5" /><line x1="1078.104451386867" y1="120" x2="1078.104451386867" y2="110" stroke="black" stroke-width="0.5" /><line x1="1080.938593453572" y1="120" x2="1080.938593453572" y2="110" stroke="black" stroke-width="0.5" /><line x1="1083.5457514230127" y1="120" x2="1083.5457514230127" y2="110" stroke="black" stroke-width="0.5" /><line x1="1085.959602675868" y1="120" x2="1085.959602675868" y2="110" stroke="black" stroke-width="0.5" /><line x1="1088.206844429176" y1="120" x2="1088.206844429176" y2="110" stroke="black" stroke-width="0.5" /><line x1="1090.3089986991943" y1="120" x2="1090.3089986991943" y2="110" stroke="black" stroke-width="0.5" /><line x1="1092.2836691033706" y1="120" x2="1092.2836691033706" y2="110" stroke="black" stroke-width="0.5" /><line x1="1094.145437882748" y1="120" x2="1094.145437882748" y2="110" stroke="black" stroke-width="0.5" /><line x1="1095.9065200714622" y1="120" x2="1095.9065200714622" y2="110" stroke="black" stroke-width="0.5" /><line x1="1097.5772496747986" y1="120" x2="1097.5772496747986" y2="110" stroke="black" stroke-width="0.5" /><line x1="1099.166447105044" y1="120" x2="1099.166447105044" y2="110" stroke="black" stroke-width="0.5" /><line x1="1100.6817010616655" y1="120" x2="1100.6817010616655" y2="110" stroke="black" stroke-width="0.5" /><line x1="1102.1295877013195" y1="120" x2="1102.1295877013195" y2="110" stroke="black" stroke-width="0.5" /><line x1="1103.5158431283705" y1="120" x2="1103.5158431283705" y2="110" stroke="black" stroke-width="0.5" /><line x1="1104.8455006504028" y1="120" x2="1104.8455006504028" y2="110" stroke="black" stroke-width="0.5" /><line x1="1106.1230010978113" y1="120" x2="1106.1230010978113" y2="110" stroke="black" stroke-width="0.5" /><line x1="1107.352282311924" y1="120" x2="1107.352282311924" y2="110" stroke="black" stroke-width="0.5" /><line x1="1108.5368523506663" y1="120" x2="1108.5368523506663" y2="110" stroke="black" stroke-width="0.5" /><line x1="1109.6798498424216" y1="120" x2="1109.6798498424216" y2="110" stroke="black" stroke-width="0.5" /><line x1="1110.7840941039747" y1="120" x2="1110.7840941039747" y2="110" stroke="black" stroke-width="0.5" /><line x1="1111.8521270375704" y1="120" x2="1111.8521270375704" y2="110" stroke="black" stroke-width="0.5" /><line x1="1112.8862483739929" y1="120" x2="1112.8862483739929" y2="110" stroke="black" stroke-width="0.5" /><line x1="1113.8885454908416" y1="120" x2="1113.8885454908416" y2="110" stroke="black" stroke-width="0.5" /><line x1="1114.8609187781692" y1="120" x2="1114.8609187781692" y2="110" stroke="black" stroke-width="0.5" /><line x1="1115.8051033262707" y1="120" x2="1115.8051033262707" y2="110" stroke="black" stroke-width="0.5" /><line x1="1116.7226875575466" y1="120" x2="1116.7226875575466" y2="110" stroke="black" stroke-width="0.5" /><line x1="1117.6151293050245" y1="120" x2="1117.6151293050245" y2="110" stroke="black" stroke-width="0.5" /><line x1="1118.4837697462608" y1="120" x2="1118.4837697462608" y2="110" stroke="black" stroke-width="0.5" /><line x1="1119.3298455269874" y1="120" x2="1119.3298455269874" y2="110" stroke="black" stroke-width="0.5" /><line x1="1120.1544993495972" y1="120" x2="1120.1544993495972" y2="110" stroke="black" stroke-width="0.5" /><line x1="1120.95878925398" y1="120" x2="1120.95878925398" y2="110" stroke="black" stroke-width="0.5" /><line x1="1121.7436967798426" y1="120" x2="1121.7436967798426" y2="110" stroke="black" stroke-width="0.5" /><line x1="1122.510134168469" y1="120" x2="1122.510134168469" y2="110" stroke="black" stroke-width="0.5" /><line x1="1123.2589507364642" y1="120" x2="1123.2589507364642" y2="110" stroke="black" stroke-width="0.5" /><line x1="1123.9909385331507" y1="120" x2="1123.9909385331507" y2="110" stroke="black" stroke-width="0.5" /><line x1="1124.706837376118" y1="120" x2="1124.706837376118" y2="110" stroke="black" stroke-width="0.5" /><line x1="1125.4073393451788" y1="120" x2="1125.4073393451788" y2="110" stroke="black" stroke-width="0.5" /><line x1="1126.093092803169" y1="120" x2="1126.093092803169" y2="110" stroke="black" stroke-width="0.5" /><line x1="1126.7647060021386" y1="120" x2="1126.7647060021386" y2="110" stroke="black" stroke-width="0.5" /><line x1="1127.4227503252014" y1="120" x2="1127.4227503252014" y2="110" stroke="black" stroke-width="0.5" /><line x1="1128.0677632073453" y1="120" x2="1128.0677632073453" y2="110" stroke="black" stroke-width="0.5" /><line x1="1128.70025077261" y1="120" x2="1128.70025077261" y2="110" stroke="black" stroke-width="0.5" /><line x1="1129.320690220059" y1="120" x2="1129.320690220059" y2="110" stroke="black" stroke-width="0.5" /><line x1="1129.9295319867226" y1="120" x2="1129.9295319867226" y2="110" stroke="black" stroke-width="0.5" /><line x1="1130.5272017120683" y1="120" x2="1130.5272017120683" y2="110" stroke="black" stroke-width="0.5" /><line x1="1131.114102025465" y1="120" x2="1131.114102025465" y2="110" stroke="black" stroke-width="0.5" /><line x1="1131.6906141754368" y1="120" x2="1131.6906141754368" y2="110" stroke="black" stroke-width="0.5" /><line x1="1132.2570995172202" y1="120" x2="1132.2570995172202" y2="110" stroke="black" stroke-width="0.5" /><line x1="1132.8139008731607" y1="120" x2="1132.8139008731607" y2="110" stroke="black" stroke-width="0.5" /><line x1="1155.938593453572" y1="120" x2="1155.938593453572" y2="110" stroke="black" stroke-width="0.5" /><line x1="1169.145437882748" y1="120" x2="1169.145437882748" y2="110" stroke="black" stroke-width="0.5" /><line x1="1178.5158431283705" y1="120" x2="1178.5158431283705" y2="110" stroke="black" stroke-width="0.5" /><line x1="1185.7840941039747" y1="120" x2="1185.7840941039747" y2="110" stroke="black" stroke-width="0.5" /><line x1="1191.7226875575466" y1="120" x2="1191.7226875575466" y2="110" stroke="black" stroke-width="0.5" /><line x1="1196.7436967798426" y1="120" x2="1196.7436967798426" y2="110" stroke="black" stroke-width="0.5" /><line x1="1201.093092803169" y1="120" x2="1201.093092803169" y2="110" stroke="black" stroke-width="0.5" /><line x1="1204.9295319867226" y1="120" x2="1204.9295319867226" y2="110" stroke="black" stroke-width="0.5" /><line x1="1208.3613437787733" y1="120" x2="1208.3613437787733" y2="110" stroke="black" stroke-width="0.5" /><line x1="1211.4657951656402" y1="120" x2="1211.4657951656402" y2="110" stroke="black" stroke-width="0.5" /><line x1="1214.2999372323452" y1="120" x2="1214.2999372323452" y2="110" stroke="black" stroke-width="0.5" /><line x1="1216.907095201786" y1="120" x2="1216.907095201786" y2="110" stroke="black" stroke-width="0.5" /><line x1="1219.3209464546412" y1="120" x2="1219.3209464546412" y2="110" stroke="black" stroke-width="0.5" /><line x1="1221.5681882079493" y1="120" x2="1221.5681882079493" y2="110" stroke="black" stroke-width="0.5" /><line x1="1223.6703424779676" y1="120" x2="1223.6703424779676" y2="110" stroke="black" stroke-width="0.5" /><line x1="1225.6450128821439" y1="120" x2="1225.6450128821439" y2="110" stroke="black" stroke-width="0.5" /><line x1="1227.5067816615212" y1="120" x2="1227.5067816615212" y2="110" stroke="black" stroke-width="0.5" /><line x1="1229.2678638502355" y1="120" x2="1229.2678638502355" y2="110" stroke="black" stroke-width="0.5" /><line x1="1230.938593453572" y1="120" x2="1230.938593453572" y2="110" stroke="black" stroke-width="0.5" /><line x1="1232.5277908838173" y1="120" x2="1232.5277908838173" y2="110" stroke="black" stroke-width="0.5" /><line x1="1234.0430448404388" y1="120" x2="1234.0430448404388" y2="110" stroke="black" stroke-width="0.5" /><line x1="1235.4909314800927" y1="120" x2="1235.4909314800927" y2="110" stroke="black" stroke-width="0.5" /><line x1="1236.8771869071438" y1="120" x2="1236.8771869071438" y2="110" stroke="black" stroke-width="0.5" /><line x1="1238.206844429176" y1="120" x2="1238.206844429176" y2="110" stroke="black" stroke-width="0.5" /><line x1="1239.4843448765846" y1="120" x2="1239.4843448765846" y2="110" stroke="black" stroke-width="0.5" /><line x1="1240.7136260906973" y1="120" x2="1240.7136260906973" y2="110" stroke="black" stroke-width="0.5" /><line x1="1241.8981961294398" y1="120" x2="1241.8981961294398" y2="110" stroke="black" stroke-width="0.5" /><line x1="1243.041193621195" y1="120" x2="1243.041193621195" y2="110" stroke="black" stroke-width="0.5" /><line x1="1244.145437882748" y1="120" x2="1244.145437882748" y2="110" stroke="black" stroke-width="0.5" /><line x1="1245.2134708163437" y1="120" x2="1245.2134708163437" y2="110" stroke="black" stroke-width="0.5" /><line x1="1246.2475921527662" y1="120" x2="1246.2475921527662" y2="110" stroke="black" stroke-width="0.5" /><line x1="1247.2498892696149" y1="120" x2="1247.2498892696149" y2="110" stroke="black" stroke-width="0.5" /><line x1="1248.2222625569425" y1="120" x2="1248.2222625569425" y2="110" stroke="black" stroke-width="0.5" /><line x1="1249.166447105044" y1="120" x2="1249.166447105044" y2="110" stroke="black" stroke-width="0.5" /><line x1="1250.0840313363199" y1="120" x2="1250.0840313363199" y2="110" stroke="black" stroke-width="0.5" /><line x1="1250.9764730837978" y1="120" x2="1250.9764730837978" y2="110" stroke="black" stroke-width="0.5" /><line x1="1251.845113525034" y1="120" x2="1251.845113525034" y2="110" stroke="black" stroke-width="0.5" /><line x1="1252.6911893057606" y1="120" x2="1252.6911893057606" y2="110" stroke="black" stroke-width="0.5" /><line x1="1253.5158431283705" y1="120" x2="1253.5158431283705" y2="110" stroke="black" stroke-width="0.5" /><line x1="1254.3201330327533" y1="120" x2="1254.3201330327533" y2="110" stroke="black" stroke-width="0.5" /><line x1="1255.1050405586159" y1="120" x2="1255.1050405586159" y2="110" stroke="black" stroke-width="0.5" /><line x1="1255.8714779472423" y1="120" x2="1255.8714779472423" y2="110" stroke="black" stroke-width="0.5" /><line x1="1256.6202945152372" y1="120" x2="1256.6202945152372" y2="110" stroke="black" stroke-width="0.5" /><line x1="1257.352282311924" y1="120" x2="1257.352282311924" y2="110" stroke="black" stroke-width="0.5" /><line x1="1258.0681811548914" y1="120" x2="1258.0681811548914" y2="110" stroke="black" stroke-width="0.5" /><line x1="1258.768683123952" y1="120" x2="1258.768683123952" y2="110" stroke="black" stroke-width="0.5" /><line x1="1259.4544365819424" y1="120" x2="1259.4544365819424" y2="110" stroke="black" stroke-width="0.5" /><line x1="1260.1260497809117" y1="120" x2="1260.1260497809117" y2="110" stroke="black" stroke-width="0.5" /><line x1="1260.7840941039747" y1="120" x2="1260.7840941039747" y2="110" stroke="black" stroke-width="0.5" /><line x1="1261.4291069861185" y1="120" x2="1261.4291069861185" y2="110" stroke="black" stroke-width="0.5" /><line x1="1262.0615945513832" y1="120" x2="1262.0615945513832" y2="110" stroke="black" stroke-width="0.5" /><line x1="1262.6820339988324" y1="120" x2="1262.6820339988324" y2="110" stroke="black" stroke-width="0.5" /><line x1="1263.290875765496" y1="120" x2="1263.290875765496" y2="110" stroke="black" stroke-width="0.5" /><line x1="1263.8885454908416" y1="120" x2="1263.8885454908416" y2="110" stroke="black" stroke-width="0.5" /><line x1="1264.4754458042382" y1="120" x2="1264.4754458042382" y2="110" stroke="black" stroke-width="0.5" /><line x1="1265.0519579542101" y1="120" x2="1265.0519579542101" y2="110" stroke="black" stroke-width="0.5" /><line x1="1265.6184432959935" y1="120" x2="1265.6184432959935" y2="110" stroke="black" stroke-width="0.5" /><line x1="1266.175244651934" y1="120" x2="1266.175244651934" y2="110" stroke="black" stroke-width="0.5" /><line x1="1289.2999372323452" y1="120" x2="1289.2999372323452" y2="110" stroke="black" stroke-width="0.5" /><line x1="1302.5067816615212" y1="120" x2="1302.5067816615212" y2="110" stroke="black" stroke-width="0.5" /><line x1="1311.8771869071438" y1="120" x2="1311.8771869071438" y2="110" stroke="black" stroke-width="0.5" /><line x1="1319.145437882748" y1="120" x2="1319.145437882748" y2="110" stroke="black" stroke-width="0.5" /><line x1="1325.0840313363199" y1="120" x2="1325.0840313363199" y2="110" stroke="black" stroke-width="0.5" /><line x1="1330.1050405586157" y1="120" x2="1330.1050405586157" y2="110" stroke="black" stroke-width="0.5" /><line x1="1334.4544365819422" y1="120" x2="1334.4544365819422" y2="110" stroke="black" stroke-width="0.5" /><line x1="1338.290875765496" y1="120" x2="1338.290875765496" y2="110" stroke="black" stroke-width="0.5" /><line x1="1341.7226875575466" y1="120" x2="1341.7226875575466" y2="110" stroke="black" stroke-width="0.5" /><line x1="1344.8271389444135" y1="120" x2="1344.8271389444135" y2="110" stroke="black" stroke-width="0.5" /><line x1="1347.6612810111183" y1="120" x2="1347.6612810111183" y2="110" stroke="black" stroke-width="0.5" /><line x1="1350.2684389805593" y1="120" x2="1350.2684389805593" y2="110" stroke="black" stroke-width="0.5" /><line x1="1352.6822902334143" y1="120" x2="1352.6822902334143" y2="110" stroke="black" stroke-width="0.5" /><line x1="1354.9295319867226" y1="120" x2="1354.9295319867226" y2="110" stroke="black" stroke-width="0.5" /><line x1="1357.0316862567408" y1="120" x2="1357.0316862567408" y2="110" stroke="black" stroke-width="0.5" /><line x1="1359.006356660917" y1="120" x2="1359.006356660917" y2="110" stroke="black" stroke-width="0.5" /><line x1="1360.8681254402945" y1="120" x2="1360.8681254402945" y2="110" stroke="black" stroke-width="0.5" /><line x1="1362.6292076290088" y1="120" x2="1362.6292076290088" y2="110" stroke="black" stroke-width="0.5" /><line x1="1364.2999372323452" y1="120" x2="1364.2999372323452" y2="110" stroke="black" stroke-width="0.5" /><line x1="1365.8891346625905" y1="120" x2="1365.8891346625905" y2="110" stroke="black" stroke-width="0.5" /><line x1="1367.404388619212" y1="120" x2="1367.404388619212" y2="110" stroke="black" stroke-width="0.5" /><line x1="1368.852275258866" y1="120" x2="1368.852275258866" y2="110" stroke="black" stroke-width="0.5" /><line x1="1392.8157803607155" y1="120" x2="1392.8157803607155" y2="110" stroke="black" stroke-width="0.5" /><line x1="1406.0226247898918" y1="120" x2="1406.0226247898918" y2="110" stroke="black" stroke-width="0.5" /><line x1="1415.3930300355141" y1="120" x2="1415.3930300355141" y2="110" stroke="black" stroke-width="0.5" /><line x1="1422.6612810111183" y1="120" x2="1422.6612810111183" y2="110" stroke="black" stroke-width="0.5" /><line x1="1428.5998744646904" y1="120" x2="1428.5998744646904" y2="110" stroke="black" stroke-width="0.5" /><line x1="1433.6208836869862" y1="120" x2="1433.6208836869862" y2="110" stroke="black" stroke-width="0.5" /><line x1="1437.9702797103128" y1="120" x2="1437.9702797103128" y2="110" stroke="black" stroke-width="0.5" /><line x1="1441.8067188938664" y1="120" x2="1441.8067188938664" y2="110" stroke="black" stroke-width="0.5" /><line x1="1445.2385306859169" y1="120" x2="1445.2385306859169" y2="110" stroke="black" stroke-width="0.5" /><line x1="1448.3429820727838" y1="120" x2="1448.3429820727838" y2="110" stroke="black" stroke-width="0.5" /><line x1="1451.1771241394888" y1="120" x2="1451.1771241394888" y2="110" stroke="black" stroke-width="0.5" /><line x1="1453.7842821089298" y1="120" x2="1453.7842821089298" y2="110" stroke="black" stroke-width="0.5" /><line x1="1456.1981333617848" y1="120" x2="1456.1981333617848" y2="110" stroke="black" stroke-width="0.5" /><line x1="1458.4453751150932" y1="120" x2="1458.4453751150932" y2="110" stroke="black" stroke-width="0.5" /><line x1="1460.5475293851114" y1="120" x2="1460.5475293851114" y2="110" stroke="black" stroke-width="0.5" /><line x1="1462.5221997892875" y1="120" x2="1462.5221997892875" y2="110" stroke="black" stroke-width="0.5" /><line x1="1464.3839685686648" y1="120" x2="1464.3839685686648" y2="110" stroke="black" stroke-width="0.5" /><line x1="1466.145050757379" y1="120" x2="1466.145050757379" y2="110" stroke="black" stroke-width="0.5" /><line x1="1467.8157803607155" y1="120" x2="1467.8157803607155" y2="110" stroke="black" stroke-width="0.5" /><line x1="1469.4049777909609" y1="120" x2="1469.4049777909609" y2="110" stroke="black" stroke-width="0.5" /><line x1="1470.9202317475824" y1="120" x2="1470.9202317475824" y2="110" stroke="black" stroke-width="0.5" /><line x1="1472.3681183872363" y1="120" x2="1472.3681183872363" y2="110" stroke="black" stroke-width="0.5" /><line x1="1473.7543738142874" y1="120" x2="1473.7543738142874" y2="110" stroke="black" stroke-width="0.5" /><line x1="1475.0840313363199" y1="120" x2="1475.0840313363199" y2="110" stroke="black" stroke-width="0.5" /><line x1="1476.3615317837284" y1="120" x2="1476.3615317837284" y2="110" stroke="black" stroke-width="0.5" /><line x1="1477.590812997841" y1="120" x2="1477.590812997841" y2="110" stroke="black" stroke-width="0.5" /><line x1="1478.7753830365834" y1="120" x2="1478.7753830365834" y2="110" stroke="black" stroke-width="0.5" /><line x1="1479.9183805283387" y1="120" x2="1479.9183805283387" y2="110" stroke="black" stroke-width="0.5" /><line x1="1481.0226247898918" y1="120" x2="1481.0226247898918" y2="110" stroke="black" stroke-width="0.5" /><line x1="139.23844728040547" y1="120" x2="139.23844728040547" y2="100" stroke="black" stroke-width="1.75" /><text text-anchor="start" transform="translate(139.23844728040547, 90) rotate(-45)">1 mm/c</text><line x1="244.60097602690087" y1="120" x2="244.60097602690087" y2="100" stroke="black" stroke-width="1.75" /><text text-anchor="start" transform="translate(244.60097602690087, 90) rotate(-45)">1 in/c</text><line x1="214.23844728040547" y1="120" x2="214.23844728040547" y2="100" stroke="black" stroke-width="1.75" /><text text-anchor="start" transform="translate(214.23844728040547, 90) rotate(-45)">1 cm/c</text><line x1="364.23844728040547" y1="120" x2="364.23844728040547" y2="100" stroke="black" stroke-width="1.75" /><text text-anchor="start" transform="translate(364.23844728040547, 90) rotate(-45)">1 m/c</text><line x1="589.2384472804055" y1="120" x2="589.2384472804055" y2="100" stroke="black" stroke-width="1.75" /><text text-anchor="start" transform="translate(589.2384472804055, 90) rotate(-45)">1 km/c</text><line x1="604.7371136705085" y1="120" x2="604.7371136705085" y2="100" stroke="black" stroke-width="1.75" /><text text-anchor="start" transform="translate(604.7371136705085, 90) rotate(-45)">1 mile/c</text><line x1="1000" y1="120" x2="1000" y2="100" stroke="black" stroke-width="1.75" /><text text-anchor="start" transform="translate(1000, 90) rotate(-45)">1 second</text><line x1="1133.3613437787733" y1="120" x2="1133.3613437787733" y2="100" stroke="black" stroke-width="1.75" /><text text-anchor="start" transform="translate(1133.3613437787733, 90) rotate(-45)">1 minute</text><line x1="1202.3578531838314" y1="120" x2="1202.3578531838314" y2="100" stroke="black" stroke-width="1.75" /><text text-anchor="start" transform="translate(1202.3578531838314, 90) rotate(-45)">1 AU/c</text><line x1="1266.7226875575466" y1="120" x2="1266.7226875575466" y2="100" stroke="black" stroke-width="1.75" /><text text-anchor="start" transform="translate(1266.7226875575466, 90) rotate(-45)">1 hour</text><line x1="1370.2385306859169" y1="120" x2="1370.2385306859169" y2="100" stroke="black" stroke-width="1.75" /><text text-anchor="start" transform="translate(1370.2385306859169, 90) rotate(-45)">1 day</text><line x1="1433.6208836869862" y1="120" x2="1433.6208836869862" y2="100" stroke="black" stroke-width="1.75" /><text text-anchor="start" transform="translate(1433.6208836869862, 90) rotate(-45)">1 week</text><line x1="1482.0906577234875" y1="120" x2="1482.0906577234875" y2="100" stroke="black" stroke-width="1.75" /><text text-anchor="start" transform="translate(1482.0906577234875, 90) rotate(-45)">1 month</text><line x1="1562.4104955201526" y1="120" x2="1562.4104955201526" y2="100" stroke="black" stroke-width="1.75" /><text text-anchor="start" transform="translate(1562.4104955201526, 90) rotate(-45)">1 year</text><line x1="1637.4104955201526" y1="120" x2="1637.4104955201526" y2="100" stroke="black" stroke-width="1.75" /><text text-anchor="start" transform="translate(1637.4104955201526, 90) rotate(-45)">1 decade</text><line x1="1673.1945896241273" y1="120" x2="1673.1945896241273" y2="100" stroke="black" stroke-width="1.75" /><text text-anchor="start" transform="translate(1673.1945896241273, 90) rotate(-45)">30 years</text><line x1="1712.4104955201526" y1="120" x2="1712.4104955201526" y2="100" stroke="black" stroke-width="1.75" /><text text-anchor="start" transform="translate(1712.4104955201526, 90) rotate(-45)">1 century</text><line x1="1787.4104955201526" y1="120" x2="1787.4104955201526" y2="100" stroke="black" stroke-width="1.75" /><text text-anchor="start" transform="translate(1787.4104955201526, 90) rotate(-45)">1 millenium</text><line x1="175" y1="120" x2="175" y2="130" stroke="black" stroke-width="0.5" /><line x1="250" y1="120" x2="250" y2="130" stroke="black" stroke-width="0.5" /><line x1="400" y1="120" x2="400" y2="130" stroke="black" stroke-width="0.5" /><line x1="475" y1="120" x2="475" y2="130" stroke="black" stroke-width="0.5" /><line x1="625" y1="120" x2="625" y2="130" stroke="black" stroke-width="0.5" /><line x1="700" y1="120" x2="700" y2="130" stroke="black" stroke-width="0.5" /><line x1="850" y1="120" x2="850" y2="130" stroke="black" stroke-width="0.5" /><line x1="925" y1="120" x2="925" y2="130" stroke="black" stroke-width="0.5" /><line x1="1075" y1="120" x2="1075" y2="130" stroke="black" stroke-width="0.5" /><line x1="1150" y1="120" x2="1150" y2="130" stroke="black" stroke-width="0.5" /><line x1="1300" y1="120" x2="1300" y2="130" stroke="black" stroke-width="0.5" /><line x1="1375" y1="120" x2="1375" y2="130" stroke="black" stroke-width="0.5" /><line x1="1525" y1="120" x2="1525" y2="130" stroke="black" stroke-width="0.5" /><line x1="1600" y1="120" x2="1600" y2="130" stroke="black" stroke-width="0.5" /><line x1="1750" y1="120" x2="1750" y2="130" stroke="black" stroke-width="0.5" /><line x1="1825" y1="120" x2="1825" y2="130" stroke="black" stroke-width="0.5" /><line x1="100" y1="120" x2="1900" y2="120" stroke="black" stroke-width="1.75" /></svg>