<?xml version="1.0" encoding="utf-8" ?><svg xmlns="http://www.w3.org/2000/svg" xmlns:ev="http://www.w3.org/2001/xml-events" xmlns:xlink="http://www.w3.org/1999/xlink" baseProfile="tiny" version="1.2" width="100%" height="100%" viewBox="-25.0,-25.0,2550,2550"><defs /><rect fill="#FFFFFF" x="-25.0" y="-50" width="2575.0" height="2575.0"/><rect fill="#000000" x="0" y="2482" width="2500" height="18"/><rect fill="#000000" x="0" y="2114" width="2500" height="18"/><rect fill="#000000" x="0" y="1746" width="2500" height="18"/><rect fill="#000000" x="0" y="1608" width="2500" height="18"/><rect fill="#000000" x="0" y="940" width="2500" height="18"/><rect fill="#000000" x="0" y="572" width="2500" height="18"/><rect fill="#000000" x="0" y="154" width="2500" height="18"/><rect fill="#000000" x="0" y="0" width="2500" height="18"/><rect fill="#0000ff" x="618" y="2482" width="286" height="18"/><rect fill="#0000ff" x="2140" y="2482" width="360" height="18"/><rect fill="#0000ff" x="368" y="2114" width="536" height="18"/><rect fill="#0000ff" x="1722" y="2114" width="778" height="18"/><rect fill="#0000ff" x="218" y="1746" width="486" height="18"/><rect fill="#0000ff" x="904" y="1746" width="156" height="18"/><rect fill="#0000ff" x="1510" y="1746" width="990" height="18"/><rect fill="#0000ff" x="0" y="1608" width="604" height="18"/><rect fill="#0000ff" x="904" y="1608" width="156" height="18"/><rect fill="#0000ff" x="1121" y="1608" width="1089" height="18"/><rect fill="#0000ff" x="0" y="940" width="321" height="18"/><rect fill="#0000ff" x="636" y="940" width="386" height="18"/><rect fill="#0000ff" x="1121" y="940" width="1089" height="18"/><rect fill="#0000ff" x="636" y="572" width="386" height="18"/><rect fill="#0000ff" x="1640" y="572" width="386" height="18"/><rect fill="#000000" x="0" y="2132" width="18" height="350"/><rect fill="#000000" x="1254" y="2132" width="18" height="350"/><rect fill="#000000" x="1522" y="2132" width="18" height="350"/><rect fill="#000000" x="2482" y="2132" width="18" height="350"/><rect fill="#000000" x="0" y="1764" width="18" height="350"/><rect fill="#000000" x="1104" y="1764" width="18" height="350"/><rect fill="#000000" x="2482" y="1764" width="18" height="350"/><rect fill="#000000" x="0" y="1626" width="18" height="120"/><rect fill="#000000" x="2482" y="1626" width="18" height="120"/><rect fill="#000000" x="2482" y="1626" width="18" height="120"/><rect fill="#000000" x="2482" y="958" width="18" height="650"/><rect fill="#000000" x="2482" y="958" width="18" height="650"/><rect fill="#000000" x="0" y="590" width="18" height="350"/><rect fill="#000000" x="368" y="590" width="18" height="350"/><rect fill="#000000" x="1272" y="590" width="18" height="350"/><rect fill="#000000" x="2482" y="590" width="18" height="350"/><rect fill="#000000" x="2482" y="590" width="18" height="350"/><rect fill="#000000" x="0" y="172" width="18" height="400"/><rect fill="#000000" x="218" y="172" width="18" height="400"/><rect fill="#000000" x="436" y="172" width="18" height="400"/><rect fill="#000000" x="954" y="172" width="18" height="400"/><rect fill="#000000" x="1222" y="172" width="18" height="400"/><rect fill="#000000" x="1640" y="172" width="18" height="400"/><rect fill="#000000" x="2482" y="172" width="18" height="400"/><rect fill="#000000" x="2482" y="172" width="18" height="400"/><rect fill="#000000" x="0" y="18" width="18" height="136"/><rect fill="#000000" x="168" y="18" width="18" height="136"/><rect fill="#000000" x="536" y="18" width="18" height="136"/><rect fill="#000000" x="754" y="18" width="18" height="136"/><rect fill="#000000" x="1322" y="18" width="18" height="136"/><rect fill="#000000" x="1740" y="18" width="18" height="136"/><rect fill="#000000" x="2482" y="18" width="18" height="136"/><rect fill="#000000" x="2482" y="18" width="18" height="136"/><rect fill="#0000ff" x="618" y="2132" width="18" height="350"/><rect fill="#0000ff" x="886" y="2132" width="18" height="350"/><rect fill="#0000ff" x="2140" y="2132" width="18" height="350"/><rect fill="#0000ff" x="2482" y="2132" width="18" height="350"/><rect fill="#0000ff" x="368" y="1764" width="18" height="350"/><rect fill="#0000ff" x="686" y="1764" width="18" height="350"/><rect fill="#0000ff" x="1722" y="1764" width="18" height="350"/><rect fill="#0000ff" x="2482" y="1764" width="18" height="350"/><rect fill="#0000ff" x="218" y="1626" width="18" height="120"/><rect fill="#0000ff" x="586" y="1626" width="18" height="120"/><rect fill="#0000ff" x="904" y="1626" width="18" height="120"/><rect fill="#0000ff" x="1042" y="1626" width="18" height="120"/><rect fill="#0000ff" x="1510" y="1626" width="18" height="120"/><rect fill="#0000ff" x="1928" y="1626" width="18" height="120"/><rect fill="#0000ff" x="0" y="958" width="18" height="650"/><rect fill="#0000ff" x="303" y="958" width="18" height="650"/><rect fill="#0000ff" x="1121" y="958" width="18" height="650"/><rect fill="#0000ff" x="1889" y="958" width="18" height="650"/><rect fill="#0000ff" x="2192" y="958" width="18" height="650"/><rect fill="#0000ff" x="636" y="590" width="18" height="350"/><rect fill="#0000ff" x="1004" y="590" width="18" height="350"/><rect fill="#0000ff" x="1640" y="590" width="18" height="350"/><rect fill="#0000ff" x="2008" y="590" width="18" height="350"/><rect fill="#FF0000AA" x="636" y="2132" width="150" height="350"/><rect fill="#FF0000AA" x="904" y="2132" width="350" height="350"/><rect fill="#FF0000AA" x="1372" y="2132" width="150" height="350"/><rect fill="#FF0000AA" x="2158" y="2132" width="124" height="350"/><rect fill="#FF0000AA" x="436" y="1764" width="250" height="350"/><rect fill="#FF0000AA" x="804" y="1764" width="300" height="350"/><rect fill="#FF0000AA" x="1740" y="1764" width="542" height="350"/><rect fill="#FF0000AA" x="236" y="1626" width="250" height="120"/><rect fill="#FF0000AA" x="604" y="1626" width="200" height="120"/><rect fill="#FF0000AA" x="1160" y="1626" width="350" height="120"/><rect fill="#FF0000AA" x="1946" y="1626" width="336" height="120"/><rect fill="#FF0000AA" x="321" y="958" width="700" height="650"/><rect fill="#FF0000AA" x="2007" y="958" width="185" height="650"/><rect fill="#FF0000AA" x="118" y="590" width="250" height="350"/><rect fill="#FF0000AA" x="1122" y="590" width="150" height="350"/><rect fill="#FF0000AA" x="1658" y="590" width="250" height="350"/><rect fill="#FF0000AA" x="118" y="172" width="100" height="400"/><rect fill="#FF0000AA" x="1658" y="172" width="624" height="400"/><rect fill="#FF0000AA" x="1758" y="18" width="524" height="136"/><rect fill="#00FF00" x="1907" y="1016" width="285" height="10"/><rect fill="#00FF00" x="18" y="1466" width="285" height="10"/><rect fill="#00FF00" x="18" y="1306" width="285" height="10"/><rect fill="#00FF00" x="18" y="1146" width="285" height="10"/><rect fill="#00FF00" x="654" y="758" width="350" height="10"/><line x1="0" y1="0" x2="0" y2="2500" stroke="#000000" stroke-width="4" /><line x1="100" y1="0" x2="100" y2="2500" stroke="#000000" stroke-width="1.0" /><line x1="200" y1="0" x2="200" y2="2500" stroke="#000000" stroke-width="1.0" /><line x1="300" y1="0" x2="300" y2="2500" stroke="#000000" stroke-width="1.0" /><line x1="400" y1="0" x2="400" y2="2500" stroke="#000000" stroke-width="1.0" /><line x1="500" y1="0" x2="500" y2="2500" stroke="#000000" stroke-width="1.0" /><line x1="600" y1="0" x2="600" y2="2500" stroke="#000000" stroke-width="1.0" /><line x1="700" y1="0" x2="700" y2="2500" stroke="#000000" stroke-width="1.0" /><line x1="800" y1="0" x2="800" y2="2500" stroke="#000000" stroke-width="1.0" /><line x1="900" y1="0" x2="900" y2="2500" stroke="#000000" stroke-width="1.0" /><line x1="1000" y1="0" x2="1000" y2="2500" stroke="#000000" stroke-width="4" /><line x1="1100" y1="0" x2="1100" y2="2500" stroke="#000000" stroke-width="1.0" /><line x1="1200" y1="0" x2="1200" y2="2500" stroke="#000000" stroke-width="1.0" /><line x1="1300" y1="0" x2="1300" y2="2500" stroke="#000000" stroke-width="1.0" /><line x1="1400" y1="0" x2="1400" y2="2500" stroke="#000000" stroke-width="1.0" /><line x1="1500" y1="0" x2="1500" y2="2500" stroke="#000000" stroke-width="1.0" /><line x1="1600" y1="0" x2="1600" y2="2500" stroke="#000000" stroke-width="1.0" /><line x1="1700" y1="0" x2="1700" y2="2500" stroke="#000000" stroke-width="1.0" /><line x1="1800" y1="0" x2="1800" y2="2500" stroke="#000000" stroke-width="1.0" /><line x1="1900" y1="0" x2="1900" y2="2500" stroke="#000000" stroke-width="1.0" /><line x1="2000" y1="0" x2="2000" y2="2500" stroke="#000000" stroke-width="4" /><line x1="2100" y1="0" x2="2100" y2="2500" stroke="#000000" stroke-width="1.0" /><line x1="2200" y1="0" x2="2200" y2="2500" stroke="#000000" stroke-width="1.0" /><line x1="2300" y1="0" x2="2300" y2="2500" stroke="#000000" stroke-width="1.0" /><line x1="2400" y1="0" x2="2400" y2="2500" stroke="#000000" stroke-width="1.0" /><line x1="2500" y1="0" x2="2500" y2="2500" stroke="#000000" stroke-width="1.0" /><line x1="2600" y1="0" x2="2600" y2="2500" stroke="#000000" stroke-width="1.0" /><line x1="2700" y1="0" x2="2700" y2="2500" stroke="#000000" stroke-width="1.0" /><line x1="2800" y1="0" x2="2800" y2="2500" stroke="#000000" stroke-width="1.0" /><line x1="2900" y1="0" x2="2900" y2="2500" stroke="#000000" stroke-width="1.0" /><line x1="0" y1="2500" x2="2500" y2="2500" stroke="#000000" stroke-width="4" /><line x1="0" y1="2400" x2="2500" y2="2400" stroke="#000000" stroke-width="1.0" /><line x1="0" y1="2300" x2="2500" y2="2300" stroke="#000000" stroke-width="1.0" /><line x1="0" y1="2200" x2="2500" y2="2200" stroke="#000000" stroke-width="1.0" /><line x1="0" y1="2100" x2="2500" y2="2100" stroke="#000000" stroke-width="1.0" /><line x1="0" y1="2000" x2="2500" y2="2000" stroke="#000000" stroke-width="1.0" /><line x1="0" y1="1900" x2="2500" y2="1900" stroke="#000000" stroke-width="1.0" /><line x1="0" y1="1800" x2="2500" y2="1800" stroke="#000000" stroke-width="1.0" /><line x1="0" y1="1700" x2="2500" y2="1700" stroke="#000000" stroke-width="1.0" /><line x1="0" y1="1600" x2="2500" y2="1600" stroke="#000000" stroke-width="1.0" /><line x1="0" y1="1500" x2="2500" y2="1500" stroke="#000000" stroke-width="4" /><line x1="0" y1="1400" x2="2500" y2="1400" stroke="#000000" stroke-width="1.0" /><line x1="0" y1="1300" x2="2500" y2="1300" stroke="#000000" stroke-width="1.0" /><line x1="0" y1="1200" x2="2500" y2="1200" stroke="#000000" stroke-width="1.0" /><line x1="0" y1="1100" x2="2500" y2="1100" stroke="#000000" stroke-width="1.0" /><line x1="0" y1="1000" x2="2500" y2="1000" stroke="#000000" stroke-width="1.0" /><line x1="0" y1="900" x2="2500" y2="900" stroke="#000000" stroke-width="1.0" /><line x1="0" y1="800" x2="2500" y2="800" stroke="#000000" stroke-width="1.0" /><line x1="0" y1="700" x2="2500" y2="700" stroke="#000000" stroke-width="1.0" /><line x1="0" y1="600" x2="2500" y2="600" stroke="#000000" stroke-width="1.0" /><line x1="0" y1="500" x2="2500" y2="500" stroke="#000000" stroke-width="4" /><line x1="0" y1="400" x2="2500" y2="400" stroke="#000000" stroke-width="1.0" /><line x1="0" y1="300" x2="2500" y2="300" stroke="#000000" stroke-width="1.0" /><line x1="0" y1="200" x2="2500" y2="200" stroke="#000000" stroke-width="1.0" /><line x1="0" y1="100" x2="2500" y2="100" stroke="#000000" stroke-width="1.0" /><line x1="0" y1="0" x2="2500" y2="0" stroke="#000000" stroke-width="1.0" /><line x1="0" y1="-100" x2="2500" y2="-100" stroke="#000000" stroke-width="1.0" /><line x1="0" y1="-200" x2="2500" y2="-200" stroke="#000000" stroke-width="1.0" /><line x1="0" y1="-300" x2="2500" y2="-300" stroke="#000000" stroke-width="1.0" /><line x1="0" y1="-400" x2="2500" y2="-400" stroke="#000000" stroke-width="1.0" /></svg>